<svg class="icons-sprite" xmlns="http://www.w3.org/2000/svg">
  <symbol id="all-details" viewBox="0 0 18 18">
    <path d="M16 0H2C.9 0 0 .9 0 2v7c0 1.1.9 2 2 2h14c1.1 0 2-.9 2-2V2c0-1.1-.9-2-2-2zm0 6h-3.14c-.47 0-.84.33-.97.78C11.53 8.04 10.35 9 9 9s-2.53-.96-2.89-2.22c-.13-.45-.5-.78-.97-.78H2V3c0-.55.45-1 1-1h12c.55 0 1 .45 1 1v3zm-3.13 7H17c.55 0 1 .45 1 1v2c0 1.1-.9 2-2 2H2c-1.1 0-2-.9-2-2v-2c0-.55.45-1 1-1h4.13c.47 0 .85.34.98.8a2.997 2.997 0 0 0 5.78 0c.13-.46.51-.8.98-.8z"/>
  </symbol>
  <symbol id="arrow-down" viewBox="0 0 16 9">
    <path d="M8 6.605L14.308.29a.99.99 0 1 1 1.402 1.403L8.7 8.709a.99.99 0 0 1-1.4 0L.29 1.694A.993.993 0 0 1 1.692.29L8 6.605z"/>
  </symbol>
  <symbol id="arrow-left" viewBox="0 0 7 10">
    <path d="M5 10L0 5l5-5 1.5 1.5L3 5l3.5 3.5z"/>
  </symbol>
  <symbol id="arrow-right-big" viewBox="0 0 9 16">
    <path d="M6.605 8L.29 1.692A.99.99 0 1 1 1.694.29L8.709 7.3a.99.99 0 0 1 0 1.4l-7.015 7.01A.993.993 0 0 1 .29 14.308L6.605 8z"/>
  </symbol>
  <symbol id="arrow-right" viewBox="0 0 7 10">
    <path d="M1.5 10L0 8.5 3.5 5 0 1.5 1.5 0l5 5z"/>
  </symbol>
  <symbol id="calculator" viewBox="0 0 16 20">
    <path d="M2 0C.898 0 0 .898 0 2v16c0 1.102.898 2 2 2h12c1.102 0 2-.898 2-2V2c0-1.102-.898-2-2-2H2zm0 2h12v4H2V2zm9 1v2h2V3h-2zM3 8h2v2H3V8zm4 0h2v2H7V8zm4 0h2v2h-2V8zm-8 4h2v2H3v-2zm4 0h2v2H7v-2zm4 0h2v2h-2v-2zm-8 4h2v2H3v-2zm4 0h2v2H7v-2zm4 0h2v2h-2v-2z"/>
  </symbol>
  <symbol id="cart" viewBox="0 0 20 20">
    <path d="M14.16 16c1.1 0 1.99.9 1.99 2s-.89 2-1.99 2-2-.9-2-2 .9-2 2-2zm-10 0c1.1 0 1.99.9 1.99 2s-.89 2-1.99 2-2-.9-2-2 .9-2 2-2zm9.83-3.25l-.03-.12-.9-1.63H5.61c-.75 0-1.41-.41-1.75-1.03L0 2.96 1.74 2l1.11 2 2.76 5h7.02l.13-.27L15 4l.95-2 .94-2H20v2h-1.84l-3.6 7.59 1.35 2.45c.16.28.25.61.25.96 0 1.1-.9 2-2 2h-12v-2h11.58c.13 0 .25-.11.25-.25z"/><path d="M13 3l-2 4H7L5 3z"/>
  </symbol>
  <symbol id="close-mini" viewBox="0 0 10 10">
    <path d="M6.693 5L9.65 2.044A1.197 1.197 0 1 0 7.956.351L5 3.307 2.044.35A1.197 1.197 0 0 0 .351 2.044L3.307 5 .35 7.956a1.197 1.197 0 1 0 1.693 1.693L5 6.693 7.956 9.65c.234.234.54.351.847.351a1.197 1.197 0 0 0 .847-2.044L6.692 5z"/>
  </symbol>
  <symbol id="close" viewBox="0 0 16 16">
    <path d="M16 14.546L14.545 16 8 9.455 1.455 16 0 14.546 6.545 8 0 1.455 1.455 0 8 6.546 14.545 0 16 1.455 9.454 8 16 14.546z"/>
  </symbol>
  <symbol id="delete" viewBox="0 0 16 20">
    <path d="M3 5h10a2 2 0 0 1 2 2v11a2 2 0 0 1-2 2H3a2 2 0 0 1-2-2V7a2 2 0 0 1 2-2zm1.375 4.375c-.5.5-.5 1.32 0 1.806L6.194 13l-1.82 1.82a1.276 1.276 0 1 0 1.806 1.806L8 14.805l1.82 1.82a1.276 1.276 0 1 0 1.806-1.806L9.805 13l1.82-1.82A1.276 1.276 0 1 0 9.82 9.375L8 11.195l-1.82-1.82a1.275 1.275 0 0 0-1.805 0zM12 1.333l-.811-.946a1.076 1.076 0 0 0-.8-.387H5.61c-.297 0-.594.147-.8.387L4 1.333H1.143C.514 1.333 0 1.933 0 2.667 0 3.4.514 4 1.143 4h13.714C15.486 4 16 3.4 16 2.667c0-.734-.514-1.334-1.143-1.334H12z"/>
  </symbol>
  <symbol id="magnifier" viewBox="0 0 18 18">
    <path d="M12.5 11h-.79l-.28-.27A6.471 6.471 0 0 0 13 6.5 6.5 6.5 0 1 0 6.5 13c1.61 0 3.09-.59 4.23-1.57l.27.28v.79l4.293 4.284a1 1 0 0 0 1.413 0l.078-.078a1 1 0 0 0 0-1.413L12.5 11zm-6 0C4.01 11 2 8.99 2 6.5S4.01 2 6.5 2 11 4.01 11 6.5 8.99 11 6.5 11z"/>
  </symbol>
  <symbol id="print" viewBox="0 0 20 18">
    <path d="M17 5c1.66 0 3 1.34 3 3v4a2 2 0 0 1-2 2h-2v3a1 1 0 0 1-1 1H5a1 1 0 0 1-1-1v-3H2a2 2 0 0 1-2-2V8c0-1.66 1.34-3 3-3h1V2a2 2 0 0 1 2-2h8a2 2 0 0 1 2 2v3h1zM7 2a1 1 0 0 0-1 1v2h8V3a1 1 0 0 0-1-1H7zm7 14v-4H6v4h8zm2-4h2V8c0-.55-.45-1-1-1H3c-.55 0-1 .45-1 1v4h2v-1a1 1 0 0 1 1-1h10a1 1 0 0 1 1 1v1zm0-2.5a1 1 0 1 0 0-2 1 1 0 0 0 0 2z"/>
  </symbol>
  <symbol id="profile" viewBox="0 0 18 18">
    <path d="M5.599 8.665a5 5 0 1 1 6.803 0A9.003 9.003 0 0 1 18 17a1 1 0 0 1-1 1H1a1 1 0 0 1-1-1 9.003 9.003 0 0 1 5.599-8.335zM15.929 16a7.002 7.002 0 0 0-13.858 0h13.858zM9 8a3 3 0 1 0 0-6 3 3 0 0 0 0 6z"/>
  </symbol>
  <symbol id="question-tooltip" viewBox="0 0 16 16">
    <path d="M8 16A8 8 0 1 1 8 0a8 8 0 0 1 0 16zm-.576-7.264c-.25.363-.376.821-.376 1.376h2.416c0-.341.09-.632.272-.872.181-.24.47-.536.864-.888.33-.299.6-.563.808-.792.208-.23.384-.51.528-.84.144-.33.216-.715.216-1.152 0-.928-.37-1.653-1.112-2.176-.741-.523-1.725-.784-2.952-.784-1.045 0-1.95.187-2.712.56A4.482 4.482 0 0 0 3.56 4.752l1.936 1.136c.267-.373.595-.664.984-.872.39-.208.835-.312 1.336-.312.523 0 .941.115 1.256.344.315.23.472.541.472.936 0 .277-.083.525-.248.744-.165.219-.424.488-.776.808-.48.437-.845.837-1.096 1.2zm-.256 4.968c.293.283.659.424 1.096.424.437 0 .803-.141 1.096-.424a1.38 1.38 0 0 0 .44-1.032 1.34 1.34 0 0 0-.432-1.016c-.288-.272-.656-.408-1.104-.408-.448 0-.816.136-1.104.408a1.34 1.34 0 0 0-.432 1.016c0 .405.147.75.44 1.032z"/>
  </symbol>
  <symbol id="receipt" viewBox="0 0 18 20">
    <path d="M18 .21a.47.47 0 0 0-.35.15l-.79.79c-.2.2-.51.2-.71 0l-.79-.79c-.2-.2-.51-.2-.71 0l-.79.79c-.2.2-.51.2-.71 0l-.79-.79c-.2-.2-.51-.2-.71 0l-.79.79c-.2.2-.51.2-.71 0L9.36.36c-.2-.2-.51-.2-.71 0l-.79.79c-.2.2-.51.2-.71 0l-.8-.8c-.2-.2-.51-.2-.71 0l-.79.8c-.2.2-.51.2-.71 0l-.79-.8c-.2-.2-.51-.2-.71 0l-.79.8c-.2.2-.51.2-.71 0L.35.35A.5.5 0 0 0 0 .21V19.8c.13 0 .26-.05.35-.15l.79-.79c.2-.2.51-.2.71 0l.79.79c.2.2.51.2.71 0l.79-.79c.2-.2.51-.2.71 0l.79.79c.2.2.51.2.71 0l.79-.79c.2-.2.51-.2.71 0l.79.79c.2.2.51.2.71 0l.79-.79c.2-.2.51-.2.71 0l.79.79c.2.2.51.2.71 0l.79-.79c.2-.2.51-.2.71 0l.79.79c.2.2.51.2.71 0l.79-.79c.2-.2.51-.2.71 0l.79.79c.1.1.23.15.35.15V.21H18zM14 15H4c-.55 0-1-.45-1-1s.45-1 1-1h10c.55 0 1 .45 1 1s-.45 1-1 1zm0-4H4c-.55 0-1-.45-1-1s.45-1 1-1h10c.55 0 1 .45 1 1s-.45 1-1 1zm0-4H4c-.55 0-1-.45-1-1s.45-1 1-1h10c.55 0 1 .45 1 1s-.45 1-1 1z"/>
  </symbol>
  <symbol id="reset" viewBox="0 0 20 20">
    <path d="M6 4.587V1a1 1 0 0 1 2 0v6a1 1 0 0 1-1 1H1a1 1 0 0 1 0-2h3.585L.29 1.713A1 1 0 1 1 1.703.297L6 4.587zm8 0l4.297-4.29a1 1 0 0 1 1.413 1.415l-4.295 4.289H19a1 1 0 1 1 0 2h-6a1 1 0 0 1-1-1V1a1 1 0 0 1 2 0v3.587zM6.004 15.414l-4.297 4.29a1 1 0 1 1-1.414-1.416L4.59 14H1.004a1 1 0 1 1 0-2h6a1 1 0 0 1 1 1v6a1 1 0 0 1-2 0v-3.586zm7.996 0V19a1 1 0 0 1-2 0v-6a1 1 0 0 1 1-1h6a1 1 0 0 1 0 2h-3.585l4.295 4.288a1 1 0 0 1-1.413 1.416L14 15.414z"/>
  </symbol>
  <symbol id="save" viewBox="0 0 18 18">
    <path d="M14 0H2a2 2 0 0 0-2 2v14a2 2 0 0 0 2 2h14c1.1 0 2-.9 2-2V4l-4-4zM9 16c-1.66 0-3-1.34-3-3s1.34-3 3-3 3 1.34 3 3-1.34 3-3 3zm3-10H2V2h10v4z"/>
  </symbol>
  <symbol id="upload" viewBox="0 0 22 18">
    <path d="M11 0l4 4h-3v9h-2V4H7l4-4zm9 0c1.1 0 2 .9 2 2v14c0 1.1-.9 2-2 2H2c-1.1 0-2-.9-2-2V2C0 .9.9 0 2 0h6L6 1.99H2v14.03h18V1.99h-4L14 0h6z"/>
  </symbol>
  <symbol id="zoom" viewBox="0 0 20 20">
    <path d="M0 0v7h2V3.406L6.594 8 8 6.594 3.406 2H7V0H0zm13 0v2h3.594L12 6.594 13.406 8 18 3.406V7h2V0h-7zM6.594 12L2 16.594V13H0v7h7v-2H3.406L8 13.406 6.594 12zm6.812 0L12 13.406 16.594 18H13v2h7v-7h-2v3.594L13.406 12z"/>
  </symbol>
  <symbol id="form_corner-radius" viewBox="0 0 18 18">
    <path d="M17 16a1 1 0 0 1 0 2H9a9 9 0 0 1-9-9V1a1 1 0 1 1 2 0v8a7 7 0 0 0 7 7h8z"/><path d="M4 2a1 1 0 1 1 0-2h2a1 1 0 1 1 0 2H4zm6 0a1 1 0 1 1 0-2h2a1 1 0 0 1 0 2h-2zm6 0a1 1 0 0 1 0-2h1a1 1 0 0 1 1 1v1a1 1 0 0 1-2 0zm0 4a1 1 0 0 1 2 0v2a1 1 0 0 1-2 0V6zm0 6a1 1 0 0 1 2 0v2a1 1 0 0 1-2 0v-2z"/>
  </symbol>
  <symbol id="form_height" viewBox="0 0 8 20">
    <path d="M5 4v12h3l-4 4-4-4h3V4H0l4-4 4 4z"/>
  </symbol>
  <symbol id="form_quantity" viewBox="0 0 22 20">
    <path d="M6 12v-1a1 1 0 0 1 2 0v1h12V8h-2v1a1 1 0 0 1-2 0V8h-1v1a1 1 0 0 1-2 0V8H2v4h1v-1a1 1 0 0 1 2 0v1h1zm0 1H5v1a1 1 0 0 1-2 0v-1H2v4h18v-4H8v1a1 1 0 0 1-2 0v-1zm12-6h2V3h-8v1a1 1 0 0 1-2 0V3H9v1a1 1 0 1 1-2 0V3H6v1a1 1 0 1 1-2 0V3H2v4h11V6a1 1 0 0 1 2 0v1h1V6a1 1 0 0 1 2 0v1zm-6-5h8V.5a.5.5 0 1 1 1 0V17a1 1 0 0 1 1 1v1a1 1 0 0 1-1 1H1a1 1 0 0 1-1-1v-1a1 1 0 0 1 1-1V.5a.5.5 0 0 1 1 0V2h2V1a1 1 0 1 1 2 0v1h1V1a1 1 0 1 1 2 0v1h1V1a1 1 0 0 1 2 0v1z"/>
  </symbol>
  <symbol id="form_width" viewBox="0 0 20 8">
    <path d="M16 5H4v3L0 4l4-4v3h12V0l4 4-4 4z"/>
  </symbol>
  <symbol id="hole-items_delete" viewBox="0 0 16 20">
    <path d="M3 5h10a2 2 0 0 1 2 2v11a2 2 0 0 1-2 2H3a2 2 0 0 1-2-2V7a2 2 0 0 1 2-2zm1.375 4.375c-.5.5-.5 1.32 0 1.806L6.194 13l-1.82 1.82a1.276 1.276 0 1 0 1.806 1.806L8 14.805l1.82 1.82a1.276 1.276 0 1 0 1.806-1.806L9.805 13l1.82-1.82A1.276 1.276 0 1 0 9.82 9.375L8 11.195l-1.82-1.82a1.275 1.275 0 0 0-1.805 0zM12 1.333l-.811-.946a1.076 1.076 0 0 0-.8-.387H5.61c-.297 0-.594.147-.8.387L4 1.333H1.143C.514 1.333 0 1.933 0 2.667 0 3.4.514 4 1.143 4h13.714C15.486 4 16 3.4 16 2.667c0-.734-.514-1.334-1.143-1.334H12z"/>
  </symbol>
  <symbol id="hole-items_edit" viewBox="0 0 18 18">
    <path d="M0 14.46v3.04c0 .28.22.5.5.5h3.04c.13 0 .26-.05.35-.15L14.81 6.94l-3.75-3.75L.15 14.1c-.1.1-.15.22-.15.36zM17.71 4.04a.996.996 0 0 0 0-1.41L15.37.29a.996.996 0 0 0-1.41 0l-1.83 1.83 3.75 3.75 1.83-1.83z"/>
  </symbol>
</svg>