<svg xmlns="http://www.w3.org/2000/svg" width="20" height="20" viewBox="0 0 20 20"><g fill="none" fill-rule="evenodd"><path fill="#90A1B5" fill-rule="nonzero" d="M14.16 16c1.1 0 1.99.9 1.99 2s-.89 2-1.99 2-2-.9-2-2 .9-2 2-2zm-10 0c1.1 0 1.99.9 1.99 2s-.89 2-1.99 2-2-.9-2-2 .9-2 2-2zm9.83-3.25l-.03-.12-.9-1.63H5.61c-.75 0-1.41-.41-1.75-1.03L0 2.96 1.74 2l1.11 2 2.76 5h7.02l.13-.27L15 4l.95-2 .94-2H20v2h-1.84l-3.6 7.59 1.35 2.45c.16.28.25.61.25.96 0 1.1-.9 2-2 2h-12v-2h11.58c.13 0 .25-.11.25-.25z"/><path fill="#0094FF" d="M13 3l-2 4H7L5 3z"/></g></svg>