<svg xmlns="http://www.w3.org/2000/svg" width="24" height="24" viewBox="0 0 24 24"><g fill="none"><rect width="24" height="24" fill="#61A8DE" rx="4"/><path fill="#FFF" d="M19.845 5.059L3.382 11.404a.592.592 0 0 0 .048 1.123l4.184 1.222 1.56 4.9a.722.722 0 0 0 1.2.284l2.162-2.185 4.244 3.081a.888.888 0 0 0 1.39-.526L20.982 6.01c.138-.652-.51-1.194-1.136-.952zm-2.064 2.95l-7.647 6.688a.405.405 0 0 0-.136.26l-.294 2.588c-.01.084-.13.095-.155.014L8.338 13.7a.404.404 0 0 1 .176-.466l9.03-5.54c.207-.127.42.155.237.315z"/></g></svg>