<svg xmlns="http://www.w3.org/2000/svg" width="24" height="24" viewBox="0 0 24 24"><g fill="none"><rect width="24" height="24" fill="#1BD741" rx="4"/><path fill="#FFF" d="M4 20l1.12-3.976a7.95 7.95 0 0 1-1.1-4.043C4.02 7.581 7.606 4 12.01 4 16.416 4 20 7.58 20 11.981c0 4.4-3.584 7.981-7.99 7.981a7.986 7.986 0 0 1-3.906-1.017L4 20zm4.314-2.507l.245.149a6.626 6.626 0 0 0 3.451.966c3.659 0 6.635-2.973 6.635-6.627s-2.976-6.627-6.635-6.627c-3.658 0-6.634 2.973-6.634 6.627 0 1.273.362 2.51 1.047 3.576l.165.256-.645 2.29 2.371-.61zm1.452-9.227l-.519-.028a.627.627 0 0 0-.445.152c-.252.219-.653.64-.777 1.19-.184.818.1 1.821.837 2.824.736 1.003 2.108 2.607 4.534 3.293.782.22 1.397.072 1.872-.232.375-.24.635-.625.728-1.06l.083-.387a.268.268 0 0 0-.15-.3l-1.753-.807a.269.269 0 0 0-.325.08l-.688.89a.197.197 0 0 1-.22.067c-.472-.166-2.05-.826-2.916-2.492a.198.198 0 0 1 .025-.221l.658-.76a.268.268 0 0 0 .044-.281l-.756-1.765a.269.269 0 0 0-.232-.163z"/></g></svg>