<svg xmlns="http://www.w3.org/2000/svg" width="124" height="124" viewBox="0 0 124 124"><g fill="#C6CED8"><path d="M109.72 87.508a1.82 1.82 0 0 0-1.984.394l-19.89 19.89a1.82 1.82 0 0 0 1.287 3.107h19.89a1.82 1.82 0 0 0 1.82-1.82v-19.89c0-.736-.444-1.4-1.124-1.681zm-16.194 19.751l13.676-13.676v13.676H93.526z"/><path d="M122.876 58.335a1.82 1.82 0 0 0-1.983.394l-5.45 5.451V27.118a1.82 1.82 0 0 0-1.821-1.82H99.638l5.076-5.076.002-.003 4.892-4.891a5.514 5.514 0 0 0 1.625-3.924 5.515 5.515 0 0 0-1.625-3.924l-5.657-5.656a5.514 5.514 0 0 0-3.924-1.625 5.514 5.514 0 0 0-3.924 1.625L91.21 6.717l-5.914 5.914L72.63 25.298H16.135V7.292a1.82 1.82 0 0 0-1.82-1.82C6.421 5.472 0 11.894 0 19.787V97.09c0 .134.015.265.043.391a13.71 13.71 0 0 0 4.122 8.824 13.707 13.707 0 0 0 9.622 3.915h55.615l-10.474 10.474a1.82 1.82 0 0 0 1.287 3.107h61.965a1.82 1.82 0 0 0 1.82-1.82V60.016c0-.736-.444-1.4-1.124-1.681zM98.678 4.398a1.911 1.911 0 0 1 2.7 0l5.656 5.656a1.912 1.912 0 0 1 0 2.7l-3.606 3.607-8.357-8.356 3.607-3.607zm-6.181 6.18l8.356 8.357-3.34 3.34-8.355-8.357 3.339-3.34zm27.863 69.89h-3.358a1.82 1.82 0 1 0 0 3.64h3.358v5.484h-3.358a1.82 1.82 0 1 0 0 3.64h3.358v5.484h-3.358a1.82 1.82 0 1 0 0 3.64h3.358v5.485h-3.358a1.82 1.82 0 1 0 0 3.64h3.358v8.68H64.61l18.384-18.383a1.82 1.82 0 1 0-2.574-2.574l-7.376 7.376H13.787A10.09 10.09 0 0 1 3.65 96.76c.01-.345.037-.688.08-1.027v-.006c.021-.161.046-.322.074-.481l.01-.054a10.529 10.529 0 0 1 .431-1.637 10.433 10.433 0 0 1 .207-.543l.042-.102c.062-.145.127-.289.195-.43l.009-.019a10.714 10.714 0 0 1 7.447-5.824c.01-.001.018-.004.028-.006.15-.03.302-.057.455-.081.026-.004.051-.01.077-.013.138-.021.278-.038.418-.054l.118-.014c.135-.013.27-.022.407-.03.043-.003.086-.008.13-.01a9.55 9.55 0 0 1 .537-.014 1.82 1.82 0 0 0 1.82-1.82V71.4a1.82 1.82 0 1 0-3.64 0v11.49a14.215 14.215 0 0 0-8.854 4.672V19.787c0-5.265 3.832-9.653 8.854-10.52v54.851a1.82 1.82 0 0 0 3.64 0v-35.18H68.99L58.928 38.999a1.82 1.82 0 0 0 2.574 2.574L74.67 28.405l.001-.001 11.912-11.912 8.356 8.356-.98.98c0 .002-.002.002-.002.003L57.258 62.53l-8.356-8.357 7.234-7.233a1.82 1.82 0 0 0-2.574-2.574l-8.52 8.52a1.828 1.828 0 0 0-.13.143l-.037.052c-.026.034-.05.068-.074.104-.014.02-.026.042-.038.064a1.72 1.72 0 0 0-.135.281l-.016.038-3.546 10.044-2.417 6.85a1.84 1.84 0 0 0-.072.276h-6.053a1.82 1.82 0 1 0 0 3.64h50.402a1.82 1.82 0 1 0 0-3.64H46.765l11.1-3.918.026-.011c.043-.016.086-.034.128-.053l.05-.023c.043-.022.086-.046.128-.072l.04-.024a1.77 1.77 0 0 0 .13-.091l.03-.024c.051-.04.101-.084.148-.131l37.453-37.453h15.804V67.82L85.768 93.855a1.82 1.82 0 1 0 2.574 2.574l32.018-32.02v16.058zm-66.43-16.12l-5.214 1.84-3.473-3.473 1.84-5.213 6.847 6.846z"/></g></svg>