<svg xmlns="http://www.w3.org/2000/svg" width="124" height="111" viewBox="0 0 124 111"><path fill="#C6CED8" d="M3 97h118a3 3 0 0 1 3 3v4a7 7 0 0 1-7 7H7a7 7 0 0 1-7-7v-4a3 3 0 0 1 3-3zm1 4v3a3 3 0 0 0 3 3h110a3 3 0 0 0 3-3v-3H4zm60-55.907V88a2 2 0 1 1-4 0V45.093l-9.534 10.268a2 2 0 0 1-2.932-2.722l13-14a2 2 0 0 1 2.932 0l13 14a2 2 0 0 1-2.932 2.722L64 45.093zM10 101a2 2 0 0 1-2-2V37c0-5.523 4.477-10 10-10a2 2 0 0 1 0 4 6 6 0 0 0-6 6v60h100V37a6 6 0 0 0-6-6 2 2 0 1 1 0-4c5.523 0 10 4.477 10 10v62a2 2 0 0 1-2 2H10zM48 4.222a4 4 0 0 0-1.515.95L33.172 18.485A4 4 0 0 0 32 21.314V73a4 4 0 0 0 4 4h17a2 2 0 1 1 0 4H36a8 8 0 0 1-8-8V19.657a4 4 0 0 1 1.172-2.829L44.828 1.172A4 4 0 0 1 47.657 0H88a8 8 0 0 1 8 8v65a8 8 0 0 1-8 8H72a2 2 0 1 1 0-4h16a4 4 0 0 0 4-4V8a4 4 0 0 0-4-4H52v12a7 7 0 0 1-7 7h-4a2 2 0 0 1 0-4h4a3 3 0 0 0 3-3V4.222z"/></svg>