<svg xmlns="http://www.w3.org/2000/svg" width="154" height="124" viewBox="0 0 154 124"><g fill="none" fill-rule="evenodd"><rect width="153" height="123" x=".5" y=".5" fill="#FFF" stroke="#E2EAF2" rx="4"/><path fill="#FFF" stroke="#E2EAF2" d="M.5 15.5h153V4A3.5 3.5 0 0 0 150 .5H4A3.5 3.5 0 0 0 .5 4v11.5z"/><path fill="#E9EFF6" d="M8 11a3 3 0 1 1 0-6 3 3 0 0 1 0 6zm10 0a3 3 0 1 1 0-6 3 3 0 0 1 0 6zm10 0a3 3 0 1 1 0-6 3 3 0 0 1 0 6z"/><g fill="#D0DEEC" fill-rule="nonzero"><path d="M101.63 81.165a.94.94 0 0 0-1.024.204L90.34 91.635a.94.94 0 0 0 .664 1.603h10.266a.94.94 0 0 0 .94-.94V82.034a.94.94 0 0 0-.58-.868zM93.271 91.36l7.058-7.058v7.058h-7.058z"/><path d="M108.42 66.108a.94.94 0 0 0-1.024.204l-2.813 2.813V49.996a.94.94 0 0 0-.94-.939h-7.217l2.62-2.62.001-.001 2.525-2.525c.54-.54.838-1.26.838-2.025 0-.765-.298-1.484-.838-2.026l-2.92-2.919a2.846 2.846 0 0 0-2.025-.838c-.765 0-1.484.297-2.025.838l-2.526 2.526-3.052 3.052-6.538 6.538H53.327v-9.293a.94.94 0 0 0-.939-.94c-4.074 0-7.388 3.315-7.388 7.389V86.11c0 .07.008.137.022.202a7.075 7.075 0 0 0 2.128 4.554 7.075 7.075 0 0 0 4.966 2.02H80.82l-5.407 5.407a.94.94 0 0 0 .665 1.603h31.982a.94.94 0 0 0 .939-.94v-31.98a.94.94 0 0 0-.58-.869zM95.93 38.27a.987.987 0 0 1 1.394 0l2.92 2.92a.987.987 0 0 1 0 1.393l-1.862 1.861-4.313-4.313 1.861-1.861zm-3.19 3.19l4.313 4.313-1.723 1.723-4.313-4.313 1.723-1.723zm14.382 36.071h-1.734a.94.94 0 1 0 0 1.88h1.733v2.83h-1.733a.94.94 0 1 0 0 1.879h1.733v2.83h-1.733a.94.94 0 1 0 0 1.88h1.733v2.83h-1.733a.94.94 0 1 0 0 1.879h1.733v4.48H78.347l9.488-9.489a.94.94 0 1 0-1.329-1.328L82.7 91.009H52.116a5.207 5.207 0 0 1-5.233-5.068c.006-.179.02-.356.042-.53v-.004a4.12 4.12 0 0 1 .038-.248l.005-.028a5.434 5.434 0 0 1 .223-.845 5.385 5.385 0 0 1 .107-.28l.021-.052c.032-.075.066-.15.1-.223l.005-.009a5.53 5.53 0 0 1 3.844-3.006c.005 0 .01-.002.014-.003.078-.016.156-.03.235-.042l.04-.007c.071-.01.144-.02.216-.027l.06-.008c.07-.007.14-.011.21-.016l.067-.005c.092-.004.185-.007.278-.007a.94.94 0 0 0 .94-.939v-6.811a.94.94 0 1 0-1.88 0v5.93a7.337 7.337 0 0 0-4.57 2.412v-34.98a5.52 5.52 0 0 1 4.57-5.43v28.31a.94.94 0 0 0 1.88 0V50.936h27.28l-5.194 5.193a.94.94 0 0 0 1.329 1.328l6.796-6.796.001-.001 6.148-6.148 4.313 4.313-.506.506-.001.001-18.941 18.941-4.313-4.313 3.733-3.733a.94.94 0 0 0-1.328-1.329l-4.398 4.398a.943.943 0 0 0-.066.074l-.02.026a1.024 1.024 0 0 0-.038.054l-.02.033a.888.888 0 0 0-.07.145l-.007.02-1.83 5.184-1.248 3.535a.95.95 0 0 0-.037.143h-3.124a.94.94 0 1 0 0 1.879H87.8a.94.94 0 1 0 0-1.879H69.137l5.728-2.022.014-.006a.972.972 0 0 0 .066-.027l.026-.012a.91.91 0 0 0 .066-.037l.021-.013a.913.913 0 0 0 .066-.047l.017-.012a.943.943 0 0 0 .076-.068l19.33-19.33h8.157v20.068L89.267 84.441a.94.94 0 1 0 1.329 1.329l16.525-16.526v8.288zm-34.287-8.319l-2.691.95-1.793-1.793.95-2.69 3.534 3.533z"/></g></g></svg>