<svg xmlns="http://www.w3.org/2000/svg" width="98" height="72" viewBox="0 0 98 72"><g fill="none" fill-rule="evenodd"><path fill="#90A1B5" fill-rule="nonzero" d="M74.653 27.258L64.848 12.15a1.263 1.263 0 0 0-.168-.206l-8.023-7.998a1.262 1.262 0 0 0-1.782 0l-4.457 4.442-4.458 4.444a1.253 1.253 0 0 0 0 1.778l8.023 7.998c.473.471 1.31.471 1.783 0l2.674-2.667 11.588 11.552a1.265 1.265 0 0 0 1.784.001l2.674-2.665c.42-.419.49-1.073.167-1.571zm-3.735 1.57L59.33 17.275a1.26 1.26 0 0 0-.891-.368 1.27 1.27 0 0 0-.892.367l-2.673 2.667-6.24-6.221 7.13-7.11 7.038 7.015 9.179 14.143-1.063 1.06z"/><path fill="#90A1B5" fill-rule="nonzero" d="M54.872 5.723L49.524.39a1.265 1.265 0 0 0-1.782 0l-3.567 3.555a1.253 1.253 0 0 0 0 1.778l5.35 5.332a1.263 1.263 0 0 0 1.782.001L54.872 7.5a1.253 1.253 0 0 0 0-1.777zM50.416 8.39L46.85 4.834l1.783-1.778 3.565 3.555-1.782 1.779zm17.828 24.882l-20.502-20.44c-.473-.472-1.31-.472-1.783 0l-1.782 1.778-4.458-4.444a1.262 1.262 0 0 0-1.783 0l-3.565 3.554a1.252 1.252 0 0 0 0 1.777l4.456 4.444-8.667 8.64a2.862 2.862 0 0 0 0 4.049l1.289 1.284a2.882 2.882 0 0 0 4.06 0l8.668-8.64 2.673 2.667-8.667 8.64a2.86 2.86 0 0 0 0 4.048l1.287 1.283c.544.54 1.265.839 2.031.839a2.85 2.85 0 0 0 2.031-.84l8.896-8.868 10.762 5.778a1.26 1.26 0 0 0 1.49-.218l3.564-3.554a1.251 1.251 0 0 0 0-1.777zm-4.686 2.894L52.796 30.39a1.262 1.262 0 0 0-1.49.217l-9.558 9.53c-.168.169-.324.169-.494 0l-1.287-1.284a.35.35 0 0 1 0-.494l9.559-9.529a1.252 1.252 0 0 0 0-1.777l-4.458-4.444a1.26 1.26 0 0 0-1.784.001l-9.558 9.53a.355.355 0 0 1-.496 0l-1.288-1.285a.35.35 0 0 1 0-.494l9.558-9.53a1.253 1.253 0 0 0 0-1.776l-4.456-4.444 1.782-1.777 4.458 4.444c.473.471 1.31.471 1.783 0l1.782-1.779 18.72 18.664-2.01 2.004zm-32.753 2.438l-2.674-2.667a1.262 1.262 0 0 0-1.783 0 1.253 1.253 0 0 0 0 1.777l2.674 2.667a1.26 1.26 0 0 0 1.782 0 1.252 1.252 0 0 0 0-1.777zm-4.458 4.443l-2.674-2.665a1.262 1.262 0 0 0-1.783 0 1.253 1.253 0 0 0 0 1.777l2.674 2.665a1.26 1.26 0 0 0 1.783 0 1.252 1.252 0 0 0 0-1.777zm-4.457 4.444l-2.673-2.665a1.262 1.262 0 0 0-1.783 0 1.253 1.253 0 0 0 0 1.777l2.674 2.665a1.26 1.26 0 0 0 1.782 0 1.252 1.252 0 0 0 0-1.777zm-4.457 4.443l-2.674-2.666a1.262 1.262 0 0 0-1.783 0 1.253 1.253 0 0 0 0 1.777l2.674 2.666a1.259 1.259 0 0 0 1.782 0 1.252 1.252 0 0 0 0-1.777zm-4.457 4.444l-2.674-2.667a1.262 1.262 0 0 0-1.782 0 1.253 1.253 0 0 0 0 1.777l2.674 2.667a1.26 1.26 0 0 0 1.782 0 1.253 1.253 0 0 0 0-1.777zM8.518 60.82l-2.673-2.666a1.262 1.262 0 0 0-1.783 0 1.253 1.253 0 0 0 0 1.777l2.674 2.667a1.26 1.26 0 0 0 1.782 0 1.253 1.253 0 0 0 0-1.777z"/><path fill="#90A1B5" fill-rule="nonzero" d="M49.526 28.828a1.252 1.252 0 0 0 0-1.777l-4.458-4.444c-.473-.472-1.31-.472-1.783 0l-9.558 9.529a.352.352 0 0 1-.496.001l-.644-.642a1.259 1.259 0 0 0-1.782 0L.908 61.3a3.09 3.09 0 0 0 0 4.374l5.416 5.4a3.095 3.095 0 0 0 2.194.906c.796 0 1.59-.302 2.195-.905L40.611 41.27a1.254 1.254 0 0 0 0-1.778l-.644-.641a.35.35 0 0 1 0-.494l9.559-9.53zM38.183 36.58a2.862 2.862 0 0 0-.232 3.786L8.931 69.298a.585.585 0 0 1-.824 0l-5.417-5.4a.58.58 0 0 1 0-.821l29.021-28.932c1.125.877 2.762.8 3.798-.232l8.667-8.64 2.674 2.666-8.667 8.64zm-2.029-12.195l-3.566-3.554a1.262 1.262 0 0 0-1.782 0 1.253 1.253 0 0 0 0 1.777l3.565 3.554a1.26 1.26 0 0 0 1.783 0 1.253 1.253 0 0 0 0-1.777z"/><path fill="#90A1B5" fill-rule="nonzero" d="M34.37 19.052a1.262 1.262 0 0 0-1.783 0l-3.565 3.556a1.253 1.253 0 0 0 0 1.777 1.26 1.26 0 0 0 1.782 0l3.566-3.556a1.252 1.252 0 0 0 0-1.777z"/><path fill="#C6CED8" fill-rule="nonzero" d="M33 59a1 1 0 0 1 0-2h64a1 1 0 0 1 0 2H33zm36.585-9.19a1 1 0 0 1-1.17-1.62l18-13A1 1 0 0 1 87 35h4.63a1 1 0 1 1 0 2h-4.307L69.585 49.81z"/><rect width="2" height="6" x="95" y="33" fill="#C6CED8" rx="1"/><path fill="#C6CED8" fill-rule="nonzero" d="M78.5 49a6.5 6.5 0 1 0 0-13 6.5 6.5 0 0 0 0 13zm0 2a8.5 8.5 0 1 1 0-17 8.5 8.5 0 0 1 0 17z"/></g></svg>