<svg xmlns="http://www.w3.org/2000/svg" width="278" height="124" viewBox="0 0 278 124"><g fill="none"><path fill="#90A1B5" d="M263.72 87.508a1.82 1.82 0 0 0-1.984.394l-19.89 19.89a1.82 1.82 0 0 0 1.287 3.107h19.89a1.82 1.82 0 0 0 1.82-1.82v-19.89c0-.736-.444-1.4-1.124-1.681zm-16.194 19.751l13.676-13.676v13.676h-13.676z"/><path fill="#90A1B5" d="M276.876 58.335a1.82 1.82 0 0 0-1.983.394l-5.45 5.451V27.118a1.82 1.82 0 0 0-1.821-1.82h-13.984l5.076-5.076.002-.003 4.892-4.891a5.514 5.514 0 0 0 1.625-3.924 5.515 5.515 0 0 0-1.625-3.924l-5.657-5.656a5.514 5.514 0 0 0-3.924-1.625 5.514 5.514 0 0 0-3.924 1.625l-4.893 4.893-5.914 5.914-12.667 12.667h-56.494V7.292a1.82 1.82 0 0 0-1.82-1.82c-7.893 0-14.315 6.422-14.315 14.315V97.09c0 .134.016.265.043.391.251 3.35 1.7 6.461 4.122 8.824a13.707 13.707 0 0 0 9.622 3.915h55.615l-10.474 10.474a1.82 1.82 0 0 0 1.287 3.107h61.965a1.82 1.82 0 0 0 1.82-1.82V60.016c0-.736-.444-1.4-1.124-1.681zM252.678 4.398a1.911 1.911 0 0 1 2.7 0l5.656 5.656a1.912 1.912 0 0 1 0 2.7l-3.606 3.607-8.357-8.356 3.607-3.607zm-6.181 6.18l8.356 8.357-3.34 3.34-8.355-8.357 3.339-3.34zm27.863 69.89h-3.358a1.82 1.82 0 1 0 0 3.64h3.358v5.484h-3.358a1.82 1.82 0 1 0 0 3.64h3.358v5.484h-3.358a1.82 1.82 0 1 0 0 3.64h3.358v5.485h-3.358a1.82 1.82 0 1 0 0 3.64h3.358v8.68h-55.75l18.384-18.383a1.82 1.82 0 1 0-2.574-2.574l-7.376 7.376h-59.256a10.09 10.09 0 0 1-10.138-9.82c.01-.345.037-.688.08-1.027v-.006c.021-.161.046-.322.074-.481l.01-.054a10.53 10.53 0 0 1 .431-1.637 10.433 10.433 0 0 1 .207-.543l.042-.102c.062-.145.127-.289.195-.43l.009-.019a10.714 10.714 0 0 1 7.447-5.824c.01-.001.018-.004.028-.006.15-.03.302-.057.455-.081.026-.004.051-.01.077-.013.138-.021.278-.038.418-.054l.118-.014c.135-.013.27-.022.407-.03.043-.003.086-.008.13-.01a9.55 9.55 0 0 1 .537-.014 1.82 1.82 0 0 0 1.82-1.82V71.4a1.82 1.82 0 1 0-3.64 0v11.49a14.215 14.215 0 0 0-8.854 4.672V19.787c0-5.265 3.832-9.653 8.854-10.52v54.851a1.82 1.82 0 0 0 3.64 0v-35.18h52.855l-10.061 10.061a1.82 1.82 0 0 0 2.574 2.574l13.168-13.168.001-.001 11.912-11.912 8.356 8.356-.98.98c0 .002-.002.002-.002.003l-36.7 36.699-8.356-8.357 7.234-7.233a1.82 1.82 0 0 0-2.574-2.574l-8.52 8.52a1.827 1.827 0 0 0-.13.143l-.037.052c-.026.034-.05.068-.074.104-.014.02-.026.042-.038.064a1.72 1.72 0 0 0-.135.281l-.016.038-3.546 10.044-2.417 6.85a1.84 1.84 0 0 0-.072.276h-6.053a1.82 1.82 0 1 0 0 3.64h50.402a1.82 1.82 0 1 0 0-3.64h-36.161l11.1-3.918.026-.011c.043-.016.086-.034.128-.053l.05-.023c.043-.022.086-.046.128-.072l.04-.024a1.77 1.77 0 0 0 .13-.091l.03-.024c.051-.04.101-.084.148-.131l37.453-37.453h15.804V67.82l-26.034 26.035a1.82 1.82 0 1 0 2.574 2.574l32.018-32.02v16.058zm-66.43-16.12l-5.214 1.84-3.473-3.473 1.84-5.213 6.847 6.846z"/><path fill="#C6CED8" d="M6.65 24.255a1.5 1.5 0 1 1-.885-2.866 318.639 318.639 0 0 1 11.59-3.342 1.5 1.5 0 1 1 .774 2.899 315.642 315.642 0 0 0-11.48 3.31zm23.077-6.142a1.5 1.5 0 1 1-.644-2.93 225.097 225.097 0 0 1 11.865-2.287 1.5 1.5 0 1 1 .486 2.96c-3.798.624-7.7 1.376-11.707 2.257zM53.234 14.3a1.5 1.5 0 1 1-.291-2.985c4.168-.407 8.202-.643 12.1-.708a1.5 1.5 0 1 1 .05 3c-3.816.063-7.77.294-11.859.693zm23.704-.313a1.5 1.5 0 0 1 .253-2.989c4.204.356 8.224.946 12.061 1.769a1.5 1.5 0 1 1-.629 2.933c-3.711-.796-7.606-1.367-11.685-1.713zm22.95 5.034a1.5 1.5 0 0 1 1.077-2.8 67.06 67.06 0 0 1 11.016 5.414 1.5 1.5 0 1 1-1.568 2.557 64.06 64.06 0 0 0-10.525-5.171zm19.873 12.25a1.5 1.5 0 1 1 2.038-2.202 65.127 65.127 0 0 1 8.176 9.166 1.5 1.5 0 0 1-2.415 1.78 62.128 62.128 0 0 0-7.799-8.744zm13.982 18.815a1.5 1.5 0 1 1 2.674-1.36c1.784 3.505 3.371 7.25 4.763 11.233a1.5 1.5 0 0 1-2.832.99c-1.348-3.859-2.883-7.48-4.605-10.863z"/><path fill="#C6CED8" d="M17.836 28.54a1.5 1.5 0 1 1-1.096 2.793L1.585 25.38a1.5 1.5 0 0 1-.451-2.515L12.879 12.38a1.5 1.5 0 1 1 1.999 2.238L4.95 23.48l12.885 5.06z"/></g></svg>