<svg xmlns="http://www.w3.org/2000/svg" width="154" height="124" viewBox="0 0 154 124"><g fill="none" fill-rule="evenodd"><rect width="153" height="123" x=".5" y=".5" fill="#FFF" stroke="#E2EAF2" rx="4"/><path fill="#FFF" stroke="#E2EAF2" d="M.5 15.5h153V4A3.5 3.5 0 0 0 150 .5H4A3.5 3.5 0 0 0 .5 4v11.5z"/><path fill="#E9EFF6" d="M8 11a3 3 0 1 1 0-6 3 3 0 0 1 0 6zm10 0a3 3 0 1 1 0-6 3 3 0 0 1 0 6zm10 0a3 3 0 1 1 0-6 3 3 0 0 1 0 6z"/><g transform="translate(16 32)"><rect width="121" height="19" x=".5" y=".5" fill="#FFF" stroke="#E2EAF2" rx="4"/><rect width="8" height="8" x="6" y="6" fill="#E9EFF6" rx="2"/><rect width="20" height="8" x="23" y="6" fill="#E9EFF6" rx="2"/><rect width="57" height="8" x="59" y="6" fill="#E9EFF6" rx="2"/></g><g transform="translate(16 60)"><rect width="121" height="19" x=".5" y=".5" fill="#FFF" stroke="#E2EAF2" rx="4"/><rect width="8" height="8" x="6" y="6" fill="#E9EFF6" rx="2"/><rect width="20" height="8" x="23" y="6" fill="#E9EFF6" rx="2"/><rect width="57" height="8" x="59" y="6" fill="#E9EFF6" rx="2"/></g><g transform="translate(16 88)"><rect width="121" height="19" x=".5" y=".5" fill="#FFF" stroke="#E2EAF2" rx="4"/><rect width="8" height="8" x="6" y="6" fill="#E9EFF6" rx="2"/><rect width="20" height="8" x="23" y="6" fill="#E9EFF6" rx="2"/><rect width="57" height="8" x="59" y="6" fill="#E9EFF6" rx="2"/></g></g></svg>