<svg xmlns="http://www.w3.org/2000/svg" width="154" height="124" viewBox="0 0 154 124"><g fill="none" fill-rule="evenodd"><rect width="153" height="123" x=".5" y=".5" fill="#FFF" stroke="#E2EAF2" rx="4"/><g fill="#D0DEEC" fill-rule="nonzero"><path d="M65.904 78.596h25.042c2.766 0 5.01-2.23 5.01-4.96V63.201c0-.608-.503-1.106-1.118-1.106-.614 0-1.117.498-1.117 1.106v10.435c0 1.522-1.248 2.748-2.775 2.748H65.904c-1.537 0-2.775-1.236-2.775-2.748V53.237c0-.038 0-.075-.01-.12v-.028c0-.028-.009-.056-.009-.074a.17.17 0 0 0-.018-.065c0-.009-.01-.027-.01-.037-.009-.027-.018-.046-.028-.073 0-.01-.009-.019-.009-.028-.01-.018-.019-.046-.028-.065-.01-.009-.01-.027-.018-.036a.273.273 0 0 0-.028-.046c-.01-.019-.019-.028-.028-.047-.01-.009-.019-.027-.028-.036-.01-.019-.028-.037-.038-.047l-.027-.027c-.02-.019-.028-.037-.047-.055-.01-.01-.019-.01-.019-.019l-.056-.055c-.009-.01-.018-.019-.027-.019-.02-.018-.038-.027-.056-.046-.019-.009-.038-.027-.066-.037-.009-.009-.018-.009-.027-.018-.038-.019-.066-.037-.103-.046l-6.891-2.876a1.12 1.12 0 0 0-1.462.59 1.1 1.1 0 0 0 .596 1.447l6.193 2.59v27.444c0 2.6 2.02 4.729 4.59 4.94a4.834 4.834 0 0 0-.828 2.71c0 2.702 2.226 4.905 4.954 4.905 2.729 0 4.955-2.203 4.955-4.904 0-.996-.298-1.918-.81-2.692H85.6a4.855 4.855 0 0 0-.81 2.692c0 2.7 2.226 4.904 4.954 4.904 2.729 0 4.955-2.203 4.955-4.904s-2.226-4.904-4.955-4.904h-23.84c-1.537 0-2.775-1.236-2.775-2.747v-3.642a5.01 5.01 0 0 0 2.775.83zm6.416 10.463c0 1.484-1.22 2.692-2.719 2.692-1.5 0-2.72-1.208-2.72-2.692 0-1.484 1.22-2.692 2.72-2.692 1.5 0 2.72 1.208 2.72 2.692zm20.134 0c0 1.484-1.22 2.692-2.719 2.692-1.5 0-2.72-1.208-2.72-2.692 0-1.484 1.22-2.692 2.72-2.692 1.5 0 2.72 1.208 2.72 2.692z"/><path d="M77.629 67.884s0 .01 0 0a.68.68 0 0 0 .083.074c.01.01.028.018.047.028.019.009.028.018.047.036.018.01.037.019.046.028.019.01.028.019.047.028l.056.027c.018.01.028.019.046.019.019.01.037.01.056.018.019.01.037.01.056.019a.12.12 0 0 0 .056.009c.018 0 .037.01.056.01.018 0 .037.008.056.008.018 0 .028.01.046.01.037 0 .075.009.112.009.037 0 .074 0 .112-.01.018 0 .037-.009.046-.009.019 0 .037-.009.056-.009.019 0 .037-.01.056-.01.019 0 .037-.008.056-.008.018-.01.037-.01.056-.019.018-.009.037-.009.056-.018.018-.01.028-.019.046-.019l.056-.027c.019-.01.028-.019.047-.028a.204.204 0 0 0 .046-.028c.019-.009.028-.018.047-.036.018-.01.028-.019.046-.028a.557.557 0 0 0 .075-.065l.01-.009 4.432-4.388a1.1 1.1 0 0 0 0-1.567 1.127 1.127 0 0 0-1.583 0l-2.561 2.507v-15.33c0-.608-.503-1.106-1.118-1.106-.614 0-1.117.498-1.117 1.106v15.33l-2.515-2.489a1.127 1.127 0 0 0-1.583 0 1.1 1.1 0 0 0 0 1.568l4.424 4.37zm-8.019 4.941h17.62c.615 0 1.118-.498 1.118-1.106 0-.608-.503-1.106-1.118-1.106H69.61c-.614 0-1.117.498-1.117 1.106a1.11 1.11 0 0 0 1.117 1.106z"/></g><path fill="#FFF" stroke="#E2EAF2" d="M.5 15.5h153V4A3.5 3.5 0 0 0 150 .5H4A3.5 3.5 0 0 0 .5 4v11.5z"/><path fill="#E9EFF6" d="M8 11a3 3 0 1 1 0-6 3 3 0 0 1 0 6zm10 0a3 3 0 1 1 0-6 3 3 0 0 1 0 6zm10 0a3 3 0 1 1 0-6 3 3 0 0 1 0 6z"/></g></svg>