<svg class="icons-sprite" xmlns="http://www.w3.org/2000/svg">
  <symbol id="accordion-arrow" viewBox="0 0 14 8">
    <path d="M7 5.478L12.205.306a1.056 1.056 0 0 1 1.487 0c.41.408.41 1.07 0 1.478l-5.948 5.91a1.056 1.056 0 0 1-1.488 0L.308 1.784a1.04 1.04 0 0 1 0-1.478 1.056 1.056 0 0 1 1.487 0L7 5.478z"/>
  </symbol>
  <symbol id="all-details" viewBox="0 0 18 18">
    <path d="M16 0H2C.9 0 0 .9 0 2v7c0 1.1.9 2 2 2h14c1.1 0 2-.9 2-2V2c0-1.1-.9-2-2-2zm0 6h-3.14c-.47 0-.84.33-.97.78C11.53 8.04 10.35 9 9 9s-2.53-.96-2.89-2.22c-.13-.45-.5-.78-.97-.78H2V3c0-.55.45-1 1-1h12c.55 0 1 .45 1 1v3zm-3.13 7H17c.55 0 1 .45 1 1v2c0 1.1-.9 2-2 2H2c-1.1 0-2-.9-2-2v-2c0-.55.45-1 1-1h4.13c.47 0 .85.34.98.8a2.997 2.997 0 0 0 5.78 0c.13-.46.51-.8.98-.8z"/>
  </symbol>
  <symbol id="arrow-down" viewBox="0 0 16 9">
    <path d="M8 6.605L14.308.29a.99.99 0 1 1 1.402 1.403L8.7 8.709a.99.99 0 0 1-1.4 0L.29 1.694A.993.993 0 0 1 1.692.29L8 6.605z"/>
  </symbol>
  <symbol id="arrow-left" viewBox="0 0 7 10">
    <path d="M5 10L0 5l5-5 1.5 1.5L3 5l3.5 3.5z"/>
  </symbol>
  <symbol id="arrow-right-big" viewBox="0 0 9 16">
    <path d="M6.605 8L.29 1.692A.99.99 0 1 1 1.694.29L8.709 7.3a.99.99 0 0 1 0 1.4l-7.015 7.01A.993.993 0 0 1 .29 14.308L6.605 8z"/>
  </symbol>
  <symbol id="arrow-right" viewBox="0 0 7 10">
    <path d="M1.5 10L0 8.5 3.5 5 0 1.5 1.5 0l5 5z"/>
  </symbol>
  <symbol id="calculator" viewBox="0 0 16 20">
    <path d="M2 0C.898 0 0 .898 0 2v16c0 1.102.898 2 2 2h12c1.102 0 2-.898 2-2V2c0-1.102-.898-2-2-2H2zm0 2h12v4H2V2zm9 1v2h2V3h-2zM3 8h2v2H3V8zm4 0h2v2H7V8zm4 0h2v2h-2V8zm-8 4h2v2H3v-2zm4 0h2v2H7v-2zm4 0h2v2h-2v-2zm-8 4h2v2H3v-2zm4 0h2v2H7v-2zm4 0h2v2h-2v-2z"/>
  </symbol>
  <symbol id="cart" viewBox="0 0 20 20">
    <path d="M14.16 16c1.1 0 1.99.9 1.99 2s-.89 2-1.99 2-2-.9-2-2 .9-2 2-2zm-10 0c1.1 0 1.99.9 1.99 2s-.89 2-1.99 2-2-.9-2-2 .9-2 2-2zm9.83-3.25l-.03-.12-.9-1.63H5.61c-.75 0-1.41-.41-1.75-1.03L0 2.96 1.74 2l1.11 2 2.76 5h7.02l.13-.27L15 4l.95-2 .94-2H20v2h-1.84l-3.6 7.59 1.35 2.45c.16.28.25.61.25.96 0 1.1-.9 2-2 2h-12v-2h11.58c.13 0 .25-.11.25-.25z"/><path d="M13 3l-2 4H7L5 3z"/>
  </symbol>
  <symbol id="close-mini" viewBox="0 0 10 10">
    <path d="M6.693 5L9.65 2.044A1.197 1.197 0 1 0 7.956.351L5 3.307 2.044.35A1.197 1.197 0 0 0 .351 2.044L3.307 5 .35 7.956a1.197 1.197 0 1 0 1.693 1.693L5 6.693 7.956 9.65c.234.234.54.351.847.351a1.197 1.197 0 0 0 .847-2.044L6.692 5z"/>
  </symbol>
  <symbol id="close" viewBox="0 0 16 16">
    <path d="M16 14.546L14.545 16 8 9.455 1.455 16 0 14.546 6.545 8 0 1.455 1.455 0 8 6.546 14.545 0 16 1.455 9.454 8 16 14.546z"/>
  </symbol>
  <symbol id="delete" viewBox="0 0 16 20">
    <path d="M3 5h10a2 2 0 0 1 2 2v11a2 2 0 0 1-2 2H3a2 2 0 0 1-2-2V7a2 2 0 0 1 2-2zm1.375 4.375c-.5.5-.5 1.32 0 1.806L6.194 13l-1.82 1.82a1.276 1.276 0 1 0 1.806 1.806L8 14.805l1.82 1.82a1.276 1.276 0 1 0 1.806-1.806L9.805 13l1.82-1.82A1.276 1.276 0 1 0 9.82 9.375L8 11.195l-1.82-1.82a1.275 1.275 0 0 0-1.805 0zM12 1.333l-.811-.946a1.076 1.076 0 0 0-.8-.387H5.61c-.297 0-.594.147-.8.387L4 1.333H1.143C.514 1.333 0 1.933 0 2.667 0 3.4.514 4 1.143 4h13.714C15.486 4 16 3.4 16 2.667c0-.734-.514-1.334-1.143-1.334H12z"/>
  </symbol>
  <symbol id="magnifier" viewBox="0 0 18 18">
    <path d="M12.5 11h-.79l-.28-.27A6.471 6.471 0 0 0 13 6.5 6.5 6.5 0 1 0 6.5 13c1.61 0 3.09-.59 4.23-1.57l.27.28v.79l4.293 4.284a1 1 0 0 0 1.413 0l.078-.078a1 1 0 0 0 0-1.413L12.5 11zm-6 0C4.01 11 2 8.99 2 6.5S4.01 2 6.5 2 11 4.01 11 6.5 8.99 11 6.5 11z"/>
  </symbol>
  <symbol id="print" viewBox="0 0 20 18">
    <path d="M17 5c1.66 0 3 1.34 3 3v4a2 2 0 0 1-2 2h-2v3a1 1 0 0 1-1 1H5a1 1 0 0 1-1-1v-3H2a2 2 0 0 1-2-2V8c0-1.66 1.34-3 3-3h1V2a2 2 0 0 1 2-2h8a2 2 0 0 1 2 2v3h1zM7 2a1 1 0 0 0-1 1v2h8V3a1 1 0 0 0-1-1H7zm7 14v-4H6v4h8zm2-4h2V8c0-.55-.45-1-1-1H3c-.55 0-1 .45-1 1v4h2v-1a1 1 0 0 1 1-1h10a1 1 0 0 1 1 1v1zm0-2.5a1 1 0 1 0 0-2 1 1 0 0 0 0 2z"/>
  </symbol>
  <symbol id="profile" viewBox="0 0 18 18">
    <path d="M5.599 8.665a5 5 0 1 1 6.803 0A9.003 9.003 0 0 1 18 17a1 1 0 0 1-1 1H1a1 1 0 0 1-1-1 9.003 9.003 0 0 1 5.599-8.335zM15.929 16a7.002 7.002 0 0 0-13.858 0h13.858zM9 8a3 3 0 1 0 0-6 3 3 0 0 0 0 6z"/>
  </symbol>
  <symbol id="question-tooltip" viewBox="0 0 16 16">
    <path d="M8 16A8 8 0 1 1 8 0a8 8 0 0 1 0 16zm-.576-7.264c-.25.363-.376.821-.376 1.376h2.416c0-.341.09-.632.272-.872.181-.24.47-.536.864-.888.33-.299.6-.563.808-.792.208-.23.384-.51.528-.84.144-.33.216-.715.216-1.152 0-.928-.37-1.653-1.112-2.176-.741-.523-1.725-.784-2.952-.784-1.045 0-1.95.187-2.712.56A4.482 4.482 0 0 0 3.56 4.752l1.936 1.136c.267-.373.595-.664.984-.872.39-.208.835-.312 1.336-.312.523 0 .941.115 1.256.344.315.23.472.541.472.936 0 .277-.083.525-.248.744-.165.219-.424.488-.776.808-.48.437-.845.837-1.096 1.2zm-.256 4.968c.293.283.659.424 1.096.424.437 0 .803-.141 1.096-.424a1.38 1.38 0 0 0 .44-1.032 1.34 1.34 0 0 0-.432-1.016c-.288-.272-.656-.408-1.104-.408-.448 0-.816.136-1.104.408a1.34 1.34 0 0 0-.432 1.016c0 .405.147.75.44 1.032z"/>
  </symbol>
  <symbol id="receipt" viewBox="0 0 18 20">
    <path d="M18 .21a.47.47 0 0 0-.35.15l-.79.79c-.2.2-.51.2-.71 0l-.79-.79c-.2-.2-.51-.2-.71 0l-.79.79c-.2.2-.51.2-.71 0l-.79-.79c-.2-.2-.51-.2-.71 0l-.79.79c-.2.2-.51.2-.71 0L9.36.36c-.2-.2-.51-.2-.71 0l-.79.79c-.2.2-.51.2-.71 0l-.8-.8c-.2-.2-.51-.2-.71 0l-.79.8c-.2.2-.51.2-.71 0l-.79-.8c-.2-.2-.51-.2-.71 0l-.79.8c-.2.2-.51.2-.71 0L.35.35A.5.5 0 0 0 0 .21V19.8c.13 0 .26-.05.35-.15l.79-.79c.2-.2.51-.2.71 0l.79.79c.2.2.51.2.71 0l.79-.79c.2-.2.51-.2.71 0l.79.79c.2.2.51.2.71 0l.79-.79c.2-.2.51-.2.71 0l.79.79c.2.2.51.2.71 0l.79-.79c.2-.2.51-.2.71 0l.79.79c.2.2.51.2.71 0l.79-.79c.2-.2.51-.2.71 0l.79.79c.2.2.51.2.71 0l.79-.79c.2-.2.51-.2.71 0l.79.79c.1.1.23.15.35.15V.21H18zM14 15H4c-.55 0-1-.45-1-1s.45-1 1-1h10c.55 0 1 .45 1 1s-.45 1-1 1zm0-4H4c-.55 0-1-.45-1-1s.45-1 1-1h10c.55 0 1 .45 1 1s-.45 1-1 1zm0-4H4c-.55 0-1-.45-1-1s.45-1 1-1h10c.55 0 1 .45 1 1s-.45 1-1 1z"/>
  </symbol>
  <symbol id="reset" viewBox="0 0 20 20">
    <path d="M6 4.587V1a1 1 0 0 1 2 0v6a1 1 0 0 1-1 1H1a1 1 0 0 1 0-2h3.585L.29 1.713A1 1 0 1 1 1.703.297L6 4.587zm8 0l4.297-4.29a1 1 0 0 1 1.413 1.415l-4.295 4.289H19a1 1 0 1 1 0 2h-6a1 1 0 0 1-1-1V1a1 1 0 0 1 2 0v3.587zM6.004 15.414l-4.297 4.29a1 1 0 1 1-1.414-1.416L4.59 14H1.004a1 1 0 1 1 0-2h6a1 1 0 0 1 1 1v6a1 1 0 0 1-2 0v-3.586zm7.996 0V19a1 1 0 0 1-2 0v-6a1 1 0 0 1 1-1h6a1 1 0 0 1 0 2h-3.585l4.295 4.288a1 1 0 0 1-1.413 1.416L14 15.414z"/>
  </symbol>
  <symbol id="save" viewBox="0 0 18 18">
    <path d="M14 0H2a2 2 0 0 0-2 2v14a2 2 0 0 0 2 2h14c1.1 0 2-.9 2-2V4l-4-4zM9 16c-1.66 0-3-1.34-3-3s1.34-3 3-3 3 1.34 3 3-1.34 3-3 3zm3-10H2V2h10v4z"/>
  </symbol>
  <symbol id="telegram" viewBox="0 0 24 24">
    <rect width="24" height="24" rx="4"/><path d="M19.845 5.059L3.382 11.404a.592.592 0 0 0 .048 1.123l4.184 1.222 1.56 4.9a.722.722 0 0 0 1.2.284l2.162-2.185 4.244 3.081a.888.888 0 0 0 1.39-.526L20.982 6.01c.138-.652-.51-1.194-1.136-.952zm-2.064 2.95l-7.647 6.688a.405.405 0 0 0-.136.26l-.294 2.588c-.01.084-.13.095-.155.014L8.338 13.7a.404.404 0 0 1 .176-.466l9.03-5.54c.207-.127.42.155.237.315z"/>
  </symbol>
  <symbol id="upload" viewBox="0 0 22 18">
    <path d="M11 0l4 4h-3v9h-2V4H7l4-4zm9 0c1.1 0 2 .9 2 2v14c0 1.1-.9 2-2 2H2c-1.1 0-2-.9-2-2V2C0 .9.9 0 2 0h6L6 1.99H2v14.03h18V1.99h-4L14 0h6z"/>
  </symbol>
  <symbol id="video" viewBox="0 0 22 18">
    <path d="M20 0c1.1 0 2 .9 2 2v12c0 1.1-.9 2-2 2h-5v2H7v-2H2c-1.1 0-2-.9-2-2V2C0 .9.9 0 2 0h18zm0 14V2H2v12h18zM8 4v8l7-4-7-4z"/>
  </symbol>
  <symbol id="whatsapp" viewBox="0 0 24 24">
    <rect width="24" height="24" rx="4"/><path d="M4 20l1.12-3.976a7.95 7.95 0 0 1-1.1-4.043C4.02 7.581 7.606 4 12.01 4 16.416 4 20 7.58 20 11.981c0 4.4-3.584 7.981-7.99 7.981a7.986 7.986 0 0 1-3.906-1.017L4 20zm4.314-2.507l.245.149a6.626 6.626 0 0 0 3.451.966c3.659 0 6.635-2.973 6.635-6.627s-2.976-6.627-6.635-6.627c-3.658 0-6.634 2.973-6.634 6.627 0 1.273.362 2.51 1.047 3.576l.165.256-.645 2.29 2.371-.61zm1.452-9.227l-.519-.028a.627.627 0 0 0-.445.152c-.252.219-.653.64-.777 1.19-.184.818.1 1.821.837 2.824.736 1.003 2.108 2.607 4.534 3.293.782.22 1.397.072 1.872-.232.375-.24.635-.625.728-1.06l.083-.387a.268.268 0 0 0-.15-.3l-1.753-.807a.269.269 0 0 0-.325.08l-.688.89a.197.197 0 0 1-.22.067c-.472-.166-2.05-.826-2.916-2.492a.198.198 0 0 1 .025-.221l.658-.76a.268.268 0 0 0 .044-.281l-.756-1.765a.269.269 0 0 0-.232-.163z"/>
  </symbol>
  <symbol id="zoom" viewBox="0 0 20 20">
    <path d="M0 0v7h2V3.406L6.594 8 8 6.594 3.406 2H7V0H0zm13 0v2h3.594L12 6.594 13.406 8 18 3.406V7h2V0h-7zM6.594 12L2 16.594V13H0v7h7v-2H3.406L8 13.406 6.594 12zm6.812 0L12 13.406 16.594 18H13v2h7v-7h-2v3.594L13.406 12z"/>
  </symbol>
  <symbol id="form_corner-radius" viewBox="0 0 18 18">
    <path d="M17 16a1 1 0 0 1 0 2H9a9 9 0 0 1-9-9V1a1 1 0 1 1 2 0v8a7 7 0 0 0 7 7h8z"/><path d="M4 2a1 1 0 1 1 0-2h2a1 1 0 1 1 0 2H4zm6 0a1 1 0 1 1 0-2h2a1 1 0 0 1 0 2h-2zm6 0a1 1 0 0 1 0-2h1a1 1 0 0 1 1 1v1a1 1 0 0 1-2 0zm0 4a1 1 0 0 1 2 0v2a1 1 0 0 1-2 0V6zm0 6a1 1 0 0 1 2 0v2a1 1 0 0 1-2 0v-2z"/>
  </symbol>
  <symbol id="form_height" viewBox="0 0 8 20">
    <path d="M5 4v12h3l-4 4-4-4h3V4H0l4-4 4 4z"/>
  </symbol>
  <symbol id="form_quantity" viewBox="0 0 22 20">
    <path d="M6 12v-1a1 1 0 0 1 2 0v1h12V8h-2v1a1 1 0 0 1-2 0V8h-1v1a1 1 0 0 1-2 0V8H2v4h1v-1a1 1 0 0 1 2 0v1h1zm0 1H5v1a1 1 0 0 1-2 0v-1H2v4h18v-4H8v1a1 1 0 0 1-2 0v-1zm12-6h2V3h-8v1a1 1 0 0 1-2 0V3H9v1a1 1 0 1 1-2 0V3H6v1a1 1 0 1 1-2 0V3H2v4h11V6a1 1 0 0 1 2 0v1h1V6a1 1 0 0 1 2 0v1zm-6-5h8V.5a.5.5 0 1 1 1 0V17a1 1 0 0 1 1 1v1a1 1 0 0 1-1 1H1a1 1 0 0 1-1-1v-1a1 1 0 0 1 1-1V.5a.5.5 0 0 1 1 0V2h2V1a1 1 0 1 1 2 0v1h1V1a1 1 0 1 1 2 0v1h1V1a1 1 0 0 1 2 0v1z"/>
  </symbol>
  <symbol id="form_width" viewBox="0 0 20 8">
    <path d="M16 5H4v3L0 4l4-4v3h12V0l4 4-4 4z"/>
  </symbol>
  <symbol id="hole-items_delete" viewBox="0 0 16 20">
    <path d="M3 5h10a2 2 0 0 1 2 2v11a2 2 0 0 1-2 2H3a2 2 0 0 1-2-2V7a2 2 0 0 1 2-2zm1.375 4.375c-.5.5-.5 1.32 0 1.806L6.194 13l-1.82 1.82a1.276 1.276 0 1 0 1.806 1.806L8 14.805l1.82 1.82a1.276 1.276 0 1 0 1.806-1.806L9.805 13l1.82-1.82A1.276 1.276 0 1 0 9.82 9.375L8 11.195l-1.82-1.82a1.275 1.275 0 0 0-1.805 0zM12 1.333l-.811-.946a1.076 1.076 0 0 0-.8-.387H5.61c-.297 0-.594.147-.8.387L4 1.333H1.143C.514 1.333 0 1.933 0 2.667 0 3.4.514 4 1.143 4h13.714C15.486 4 16 3.4 16 2.667c0-.734-.514-1.334-1.143-1.334H12z"/>
  </symbol>
  <symbol id="hole-items_edit" viewBox="0 0 18 18">
    <path d="M0 14.46v3.04c0 .28.22.5.5.5h3.04c.13 0 .26-.05.35-.15L14.81 6.94l-3.75-3.75L.15 14.1c-.1.1-.15.22-.15.36zM17.71 4.04a.996.996 0 0 0 0-1.41L15.37.29a.996.996 0 0 0-1.41 0l-1.83 1.83 3.75 3.75 1.83-1.83z"/>
  </symbol>
  <symbol id="services_construction" viewBox="0 0 42 16">
    <path d="M1.699 6.046l19-6a1 1 0 0 1 .602 0l19 6a1 1 0 0 1 .691.83l1 8A1 1 0 0 1 41 16H1a1 1 0 0 1-.992-1.124l1-8a1 1 0 0 1 .69-.83zM2.133 14h37.734l-.78-6.24L21 2.05 2.913 7.76 2.133 14zm18.011 1.518l-6.078-9.551-5.188 9.512A1 1 0 0 1 7.2 15.6l-6-8a1 1 0 1 1 1.6-1.2l5.067 6.756 5.255-9.635a1 1 0 0 1 1.721-.058L20 11.566V1h2v10.925l6.192-8.513a1 1 0 0 1 1.719.174l4.301 9.464L39.2 6.4a1 1 0 1 1 1.6 1.2l-6 8a1 1 0 0 1-1.71-.186L28.8 5.976l-6.978 9.594-.186-.57H20a.993.993 0 0 0 .144.518z"/>
  </symbol>
  <symbol id="services_cutting" viewBox="0 0 32 32">
    <path d="M17 16v3a1 1 0 0 1-2 0v-3h-4a1 1 0 0 1-.99-.859l-2-14A1 1 0 1 1 9.99.86L11.867 14h8.266L22.01.859a1 1 0 0 1 1.98.282l-2 14A1 1 0 0 1 21 16h-4zM1 30h30a1 1 0 0 1 0 2H1a1 1 0 0 1 0-2zm15-8a1 1 0 0 1 1 1v5a1 1 0 1 1-2 0v-5a1 1 0 0 1 1-1zm8.364.707a1 1 0 0 1 0 1.414l-4.243 4.243a1 1 0 1 1-1.414-1.414l4.243-4.243a1 1 0 0 1 1.414 0zm-16.728 0a1 1 0 0 1 1.414 0l4.243 4.243a1 1 0 1 1-1.414 1.414l-4.243-4.243a1 1 0 0 1 0-1.414zM13 6h6a1 1 0 0 1 0 2h-6a1 1 0 0 1 0-2z"/>
  </symbol>
  <symbol id="services_grid" viewBox="0 0 32 32">
    <path d="M4 15V6H1a1 1 0 1 1 0-2h3V1a1 1 0 1 1 2 0v3h9V1a1 1 0 0 1 2 0v3h9V1a1 1 0 0 1 2 0v3h3a1 1 0 0 1 0 2h-3v9h3a1 1 0 0 1 0 2h-3v9h3a1 1 0 0 1 0 2h-3v3a1 1 0 0 1-2 0v-3h-9v3a1 1 0 0 1-2 0v-3H6v3a1 1 0 0 1-2 0v-3H1a1 1 0 0 1 0-2h3v-9H1a1 1 0 0 1 0-2h3zm2 0h9V6H6v9zm0 2v9h9v-9H6zm20-2V6h-9v9h9zm0 2h-9v9h9v-9z"/>
  </symbol>
  <symbol id="services_metal-constr" viewBox="0 0 36 34">
    <path d="M10 10v23a1 1 0 0 1-1 1H1a1 1 0 0 1-1-1V1a1 1 0 0 1 1-1h34a1 1 0 0 1 1 1v32a1 1 0 0 1-1 1h-8a1 1 0 0 1-1-1V10H10zM7.485 2H2v5.485L7.485 2zm4.93 0l5.535 5.536L23.485 2h-11.07zm16 0L34 7.586V2h-5.586zM34 12.314l-5.636 5.636L34 23.586V12.314zm0 15L29.314 32H34v-4.686zm-6 3.171l5.036-5.035L28 20.414v10.071zm0-15L33.485 10H28v5.485zM8 10H3.414L8 14.586V10zm0 9.314L2.864 24.45 8 29.586V19.314zM7.586 32L2 26.414V32h5.586zM2 22.485l5.536-5.535L2 11.414v11.071zM15.586 8L9.95 2.364 4.314 8h11.272zm16 0L25.95 2.364 20.314 8h11.272z"/>
  </symbol>
  <symbol id="social_fb" viewBox="0 0 24 24">
    <path d="M21 0H3C1.345 0 0 1.345 0 3v18c0 1.654 1.345 3 3 3h9v-8.25H9V12h3V9a4.5 4.5 0 0 1 4.5-4.5h3v3.75H18c-.828 0-1.5-.078-1.5.75v3h3.75l-1.5 3.75H16.5V24H21c1.654 0 3-1.346 3-3V3c0-1.655-1.346-3-3-3z"/>
  </symbol>
  <symbol id="social_insta" viewBox="0 0 24 24">
    <path d="M16.5 0h-9A7.5 7.5 0 0 0 0 7.5v9A7.5 7.5 0 0 0 7.5 24h9a7.5 7.5 0 0 0 7.5-7.5v-9A7.5 7.5 0 0 0 16.5 0zm5.25 16.5a5.256 5.256 0 0 1-5.25 5.25h-9a5.256 5.256 0 0 1-5.25-5.25v-9A5.256 5.256 0 0 1 7.5 2.25h9a5.256 5.256 0 0 1 5.25 5.25v9zM12 6a6 6 0 1 1 0 12 6 6 0 0 1 0-12zm0 9.75A3.755 3.755 0 0 0 15.75 12 3.754 3.754 0 0 0 12 8.25 3.754 3.754 0 0 0 8.25 12 3.755 3.755 0 0 0 12 15.75zm6.45-9.4a.8.8 0 1 0 0-1.6.8.8 0 0 0 0 1.6z"/>
  </symbol>
</svg>