<svg xmlns="http://www.w3.org/2000/svg" width="66" height="66" viewBox="0 0 66 66"><path fill="#0094FF" d="M33 0c18.215 0 33 14.785 33 33S51.215 66 33 66 0 51.215 0 33 14.785 0 33 0zm0 2C15.867 2 2 15.867 2 33s13.867 31 31 31 31-13.867 31-31S50.133 2 33 2zm0 3c.55 0 1 .45 1 1s-.45 1-1 1-1-.45-1-1 .45-1 1-1zm5.293.516a1.007 1.007 0 0 1 .957 1.2c-.11.538-.637.89-1.176.784a1.005 1.005 0 0 1-.789-1.176c.098-.48.52-.82 1.008-.808zm-10.555.004c.477.003.883.34.977.804a.998.998 0 0 1-1.535 1.028 1.001 1.001 0 0 1 .36-1.816c.065-.013.132-.016.198-.016zm-5.062 1.535c.402.004.762.246.918.617a1.003 1.003 0 0 1-.543 1.308.997.997 0 0 1-1.305-.543.998.998 0 0 1 .93-1.382zm20.68 0a.998.998 0 0 1 .898 1.383.997.997 0 0 1-1.305.542 1.003 1.003 0 0 1-.543-1.308c.16-.383.535-.625.95-.617zM18.011 9.547a1 1 0 0 1 .82.45.996.996 0 0 1-.277 1.382.999.999 0 1 1-1.114-1.66 1.02 1.02 0 0 1 .57-.172zm30.004 0a.98.98 0 0 1 .539.172.98.98 0 0 1 .425.636 1 1 0 0 1-1.539 1.024.995.995 0 0 1-.273-1.383 1 1 0 0 1 .848-.45zm-34.094 3.36a.978.978 0 0 1 .691.296.995.995 0 0 1 0 1.41.995.995 0 0 1-1.41 0 .995.995 0 0 1 0-1.41c.188-.191.45-.297.719-.297zm38.183 0a.982.982 0 0 1 .692.296.995.995 0 0 1 0 1.41.995.995 0 0 1-1.41 0 .995.995 0 0 1 0-1.41c.187-.191.449-.297.718-.297zM55.461 17a.997.997 0 0 1 .543 1.828.992.992 0 0 1-1.383-.277.995.995 0 0 1 .84-1.551zm-44.895 0a1 1 0 0 1 .816 1.555 1 1 0 0 1-1.386.273 1 1 0 0 1-.277-1.387.993.993 0 0 1 .847-.441zm47.387 4.668c.402 0 .762.246.918.613a1.002 1.002 0 1 1-1.851.766.999.999 0 0 1 .933-1.379zm-49.875 0a.943.943 0 0 1 .36.078 1.002 1.002 0 0 1-.766 1.848 1.004 1.004 0 0 1-.54-1.309.995.995 0 0 1 .946-.617zm51.406 5.066a1 1 0 0 1 .98.801 1.007 1.007 0 0 1-.788 1.18 1.005 1.005 0 0 1-1.176-.79 1.005 1.005 0 0 1 .785-1.175.857.857 0 0 1 .2-.016zm-52.937 0c.058 0 .113.008.172.016a1.006 1.006 0 1 1 .36 1.816 1.02 1.02 0 0 1-.75.149.997.997 0 0 1-.79-1.18 1 1 0 0 1 1.008-.8zM6 32c.55 0 1 .45 1 1s-.45 1-1 1-1-.45-1-1 .45-1 1-1zm54 0c.55 0 1 .45 1 1s-.45 1-1 1-1-.45-1-1 .45-1 1-1zM6.523 37.266a1.003 1.003 0 0 1 .192 1.984 1.001 1.001 0 1 1-.191-1.984zm52.985 0a1.007 1.007 0 0 1 .957 1.2c-.11.538-.637.89-1.18.784a1.006 1.006 0 0 1-.785-1.176c.098-.48.52-.82 1.008-.808zm-1.54 5.062a1.002 1.002 0 0 1 .902 1.387c-.214.508-.796.75-1.308.539a.999.999 0 0 1-.542-1.305c.16-.383.535-.629.949-.62zm-49.906.004a1.001 1.001 0 0 1 .918 1.383.98.98 0 0 1-.543.539.998.998 0 0 1-1.308-.54 1.018 1.018 0 0 1 .004-.765c.101-.246.297-.441.539-.543.125-.05.258-.074.39-.074zM55.47 47c.191 0 .379.059.535.168.46.305.586.926.277 1.383a.98.98 0 0 1-.636.426A1 1 0 1 1 55.469 47zm-44.907 0a.999.999 0 0 1 .547 1.828 1.004 1.004 0 0 1-1.39-.273 1.004 1.004 0 0 1 .277-1.387.974.974 0 0 1 .566-.168zm3.36 4.094a.96.96 0 0 1 .691.293.995.995 0 0 1 0 1.41.995.995 0 0 1-1.41 0 .995.995 0 0 1 0-1.41.988.988 0 0 1 .719-.293zm38.183 0c.262 0 .508.105.692.293a.995.995 0 0 1 0 1.41.995.995 0 0 1-1.41 0 .995.995 0 0 1 0-1.41.988.988 0 0 1 .718-.293zM18.02 54.449zm29.992 0c.332 0 .64.168.82.442.309.46.184 1.082-.273 1.39a1.003 1.003 0 0 1-1.114-1.668 1 1 0 0 1 .567-.164zm-25.32 2.492c.124.004.245.032.359.079a1 1 0 0 1 .543 1.308 1 1 0 1 1-1.848-.766.999.999 0 0 1 .945-.62zm20.648 0a.999.999 0 0 1 .918.621 1 1 0 0 1 0 .766 1.006 1.006 0 0 1-1.852 0 1.006 1.006 0 0 1 .934-1.387zm-15.578 1.54a.998.998 0 0 1 .953 1.195.998.998 0 0 1-1.176.785 1 1 0 1 1 .223-1.98zm10.508.003a1 1 0 0 1 .832 1.555 1.029 1.029 0 0 1-.637.426 1.01 1.01 0 0 1-1.18-.79 1.003 1.003 0 0 1 .79-1.175.808.808 0 0 1 .195-.016zM33 59c.55 0 1 .45 1 1s-.45 1-1 1-1-.45-1-1 .45-1 1-1zm-4-27h-2v-6h10v20h2v6H27v-6h2V32zm6-4h-6v2h2v18h-2v2h8v-2h-2V28zm-2-4a5 5 0 1 1 0-10 5 5 0 0 1 0 10zm0-2a3 3 0 1 0 0-6 3 3 0 0 0 0 6z"/></svg>