<svg xmlns="http://www.w3.org/2000/svg" width="66" height="66" viewBox="0 0 66 66"><path fill="#14A430" d="M33 0c18.215 0 33 14.785 33 33S51.215 66 33 66 0 51.215 0 33 14.785 0 33 0zm0 2C15.867 2 2 15.867 2 33s13.867 31 31 31 31-13.867 31-31S50.133 2 33 2zm0 3c-.55 0-1 .45-1 1s.45 1 1 1 1-.45 1-1-.45-1-1-1zm5.293.516a1.003 1.003 0 0 0-1.008.808c-.105.54.246 1.067.79 1.176a1.005 1.005 0 0 0 1.175-.785 1.007 1.007 0 0 0-.785-1.18 3.355 3.355 0 0 0-.172-.02zm-10.555.004c-.066 0-.133.003-.199.015a1.001 1.001 0 0 0 .39 1.965.998.998 0 0 0 .786-1.176c-.094-.465-.5-.8-.977-.804zm-5.062 1.535a.998.998 0 0 0-.93 1.383.997.997 0 0 0 1.305.542c.512-.214.754-.796.543-1.308a1.006 1.006 0 0 0-.918-.617zm20.68 0a1.005 1.005 0 0 0-.95.617c-.21.512.032 1.094.543 1.308a.997.997 0 0 0 1.305-.543.998.998 0 0 0-.899-1.382zM18.011 9.547a1.02 1.02 0 0 0-.57.172.999.999 0 1 0 1.113 1.66.996.996 0 0 0 .277-1.383 1 1 0 0 0-.82-.45zm30.004 0a1 1 0 0 0-.848.45.999.999 0 0 0 1.66 1.11 1 1 0 0 0 .152-.752.98.98 0 0 0-.425-.636.98.98 0 0 0-.54-.172zm-34.094 3.36c-.27 0-.531.105-.719.296a.995.995 0 0 0 0 1.41.995.995 0 0 0 1.41 0 .995.995 0 0 0 0-1.41.983.983 0 0 0-.691-.297zm38.183 0c-.27 0-.53.105-.718.296a.995.995 0 0 0 0 1.41.995.995 0 0 0 1.41 0 .995.995 0 0 0 0-1.41.983.983 0 0 0-.692-.297zM55.461 17a.995.995 0 0 0-.84 1.55.992.992 0 0 0 1.383.278A.997.997 0 0 0 55.46 17zm-44.895 0a.993.993 0 0 0-.847.441 1 1 0 0 0 .277 1.387 1 1 0 1 0 .57-1.828zm47.387 4.668a.999.999 0 0 0-.934 1.379 1.003 1.003 0 0 0 1.852-.766 1.002 1.002 0 0 0-.918-.613zm-49.875 0a.995.995 0 0 0-.945.617 1.005 1.005 0 0 0 .539 1.309 1.002 1.002 0 0 0 1.308-.543.997.997 0 0 0-.543-1.305.943.943 0 0 0-.359-.078zm51.406 5.066a.857.857 0 0 0-.199.016c-.539.11-.89.637-.785 1.176.11.543.637.894 1.176.789.543-.11.894-.637.789-1.18a1 1 0 0 0-.98-.8zm-52.937 0a1 1 0 1 0 .953 1.192 1 1 0 0 0-.781-1.176c-.059-.008-.114-.016-.172-.016zM6 32c-.55 0-1 .45-1 1s.45 1 1 1 1-.45 1-1-.45-1-1-1zm54 0c-.55 0-1 .45-1 1s.45 1 1 1 1-.45 1-1-.45-1-1-1zM6.523 37.266a1.001 1.001 0 1 0 .191 1.984 1.003 1.003 0 1 0-.191-1.984zm52.985 0a1.003 1.003 0 0 0-.223 1.984 1.007 1.007 0 0 0 1.18-.785 1.007 1.007 0 0 0-.79-1.18 2.73 2.73 0 0 0-.167-.02zm-1.54 5.062a1.008 1.008 0 0 0-.948.621.999.999 0 0 0 .542 1.305 1.004 1.004 0 0 0 1.31-.54 1.002 1.002 0 0 0-.903-1.386zm-49.906.004c-.132 0-.265.023-.39.074a1.006 1.006 0 0 0-.54.543c-.1.246-.1.52-.003.766a.998.998 0 0 0 1.309.539.98.98 0 0 0 .542-.54 1 1 0 0 0-.918-1.382zM55.47 47a1 1 0 1 0 .535.168.934.934 0 0 0-.535-.168zm-44.907 0a.974.974 0 0 0-.566.168 1.004 1.004 0 0 0-.277 1.387c.308.457.93.582 1.39.273A.999.999 0 0 0 10.563 47zm3.36 4.094a.988.988 0 0 0-.719.293.995.995 0 0 0 0 1.41.995.995 0 0 0 1.41 0 .995.995 0 0 0 0-1.41.963.963 0 0 0-.691-.293zm38.183 0a.988.988 0 0 0-.718.293.995.995 0 0 0 0 1.41.995.995 0 0 0 1.41 0 .995.995 0 0 0 0-1.41.963.963 0 0 0-.692-.293zM18.02 54.449a.993.993 0 0 0-.848.442 1 1 0 1 0 .848-.441zm29.992 0a1 1 0 0 0-.567.164.997.997 0 0 0-.273 1.39c.305.458.926.583 1.387.278.457-.308.582-.93.273-1.39a.983.983 0 0 0-.82-.442zm-25.32 2.492a.999.999 0 0 0-.946.621 1 1 0 1 0 1.305-.542 1.022 1.022 0 0 0-.36-.079zm20.648 0c-.133 0-.266.028-.387.079a1.006 1.006 0 0 0-.547 1.308 1.004 1.004 0 0 0 1.852 0 1 1 0 0 0 0-.766.999.999 0 0 0-.918-.62zm-15.578 1.54a1 1 0 1 0-.053 2 1 1 0 0 0 .053-2zm10.508.003a.808.808 0 0 0-.196.016c-.543.11-.894.633-.789 1.176a1.01 1.01 0 0 0 1.18.79c.258-.056.488-.208.637-.427a1 1 0 0 0-.832-1.555zM33 59c-.55 0-1 .45-1 1s.45 1 1 1 1-.45 1-1-.45-1-1-1zm11.52-37.555l4.894 4.895-19.18 19.176-11.636-10.41 4.543-5.243 6.78 6.184 13.892-13.895.707-.707zm0 2.828L29.984 38.81l-6.675-6.086-1.907 2.203 8.758 7.84L46.586 26.34l-2.066-2.067z"/></svg>