<svg xmlns="http://www.w3.org/2000/svg" width="64" height="68" viewBox="0 0 64 68"><g fill="none"><path fill="#FFD782" d="M40.865 68h-17.73a1.765 1.765 0 0 1-1.772-1.759V1.76c0-.972.793-1.759 1.772-1.759h17.73c.979 0 1.772.787 1.772 1.759v64.48c0 .972-.793 1.759-1.772 1.759z"/><path fill="#EFF2FA" d="M37.91 41.035H26.09a1.177 1.177 0 0 1-1.182-1.173v-29.31c0-.648.53-1.173 1.182-1.173h11.82c.652 0 1.182.525 1.182 1.173v29.31c0 .648-.53 1.173-1.182 1.173z"/><path d="M35.546 19.931h-7.092a1.177 1.177 0 0 1-1.182-1.172c0-.648.53-1.173 1.182-1.173h7.092c.653 0 1.182.525 1.182 1.173 0 .647-.53 1.172-1.182 1.172zm0 4.689h-7.092a1.177 1.177 0 0 1-1.182-1.172c0-.647.53-1.172 1.182-1.172h7.092c.653 0 1.182.525 1.182 1.172 0 .648-.53 1.173-1.182 1.173zm0 4.69h-7.092a1.177 1.177 0 0 1-1.182-1.172c0-.648.53-1.173 1.182-1.173h7.092c.653 0 1.182.525 1.182 1.173 0 .647-.53 1.172-1.182 1.172zm0 9.38h-7.092a1.177 1.177 0 0 1-1.182-1.173c0-.647.53-1.172 1.182-1.172h7.092c.653 0 1.182.525 1.182 1.172 0 .648-.53 1.173-1.182 1.173z" fill="#D7DEED"/><path d="M24.909 31.656h14.183V34H24.909zm14.183-17.587H24.908v-4.69c0-.647.53-1.172 1.182-1.172h11.82c.652 0 1.182.525 1.182 1.172v4.69z" fill="#C7CFE2"/><ellipse cx="32" cy="51.586" fill="#464655" rx="2.955" ry="2.931"/><path fill="#EFF2FA" d="M32 56.862c-2.933 0-5.319-2.367-5.319-5.276S29.067 46.31 32 46.31s5.319 2.367 5.319 5.276c0 2.91-2.386 5.276-5.319 5.276zm0-8.207c-1.63 0-2.955 1.315-2.955 2.931s1.326 2.931 2.955 2.931c1.63 0 2.955-1.315 2.955-2.93 0-1.617-1.326-2.932-2.955-2.932z"/><path fill="#C3E678" d="M62.14 68H44.41a1.765 1.765 0 0 1-1.772-1.759V1.76c0-.973.792-1.76 1.772-1.76h17.73c.979 0 1.772.787 1.772 1.759V66.24c0 .972-.794 1.759-1.773 1.759z"/><path fill="#EFF2FA" d="M59.184 41.035H47.365a1.177 1.177 0 0 1-1.182-1.173v-29.31c0-.648.53-1.173 1.182-1.173h11.82c.652 0 1.181.525 1.181 1.173v29.31c0 .648-.529 1.173-1.182 1.173z"/><path d="M56.82 19.931h-7.09a1.177 1.177 0 0 1-1.182-1.172c0-.648.53-1.173 1.182-1.173h7.092c.652 0 1.182.525 1.182 1.173 0 .647-.53 1.172-1.182 1.172zm0 4.689h-7.09a1.177 1.177 0 0 1-1.182-1.172c0-.647.53-1.172 1.182-1.172h7.092c.652 0 1.182.525 1.182 1.172 0 .648-.53 1.173-1.182 1.173zm0 4.69h-7.09a1.177 1.177 0 0 1-1.182-1.172c0-.648.53-1.173 1.182-1.173h7.092c.652 0 1.182.525 1.182 1.173 0 .647-.53 1.172-1.182 1.172zm0 9.38h-7.09a1.177 1.177 0 0 1-1.182-1.173c0-.647.53-1.172 1.182-1.172h7.092c.652 0 1.182.525 1.182 1.172 0 .648-.53 1.173-1.182 1.173z" fill="#D7DEED"/><path d="M46.184 31.656h14.183V34H46.184zm14.183-17.587H46.183v-4.69c0-.647.53-1.172 1.182-1.172h11.82c.652 0 1.182.525 1.182 1.172v4.69z" fill="#C7CFE2"/><ellipse cx="53.275" cy="51.586" fill="#464655" rx="2.955" ry="2.931"/><path fill="#EFF2FA" d="M53.275 56.862c-2.933 0-5.319-2.367-5.319-5.276s2.386-5.276 5.319-5.276 5.319 2.367 5.319 5.276c0 2.91-2.386 5.276-5.32 5.276zm0-8.207c-1.63 0-2.955 1.315-2.955 2.931s1.326 2.931 2.955 2.931c1.63 0 2.955-1.315 2.955-2.93 0-1.617-1.326-2.932-2.955-2.932z"/><path fill="#FF6464" d="M19.59 68H1.86a1.766 1.766 0 0 1-1.772-1.759V1.76C.088.787.882 0 1.86 0h17.73c.979 0 1.772.787 1.772 1.759V66.24c0 .972-.793 1.759-1.772 1.759z"/><path fill="#EFF2FA" d="M16.635 41.035H4.815a1.177 1.177 0 0 1-1.181-1.173v-29.31c0-.648.529-1.173 1.182-1.173h11.819c.653 0 1.182.525 1.182 1.173v29.31c0 .648-.53 1.173-1.182 1.173z"/><path d="M14.27 19.931H7.18a1.177 1.177 0 0 1-1.183-1.172c0-.648.53-1.173 1.182-1.173h7.092c.653 0 1.182.525 1.182 1.173 0 .647-.53 1.172-1.182 1.172zm0 4.689H7.18a1.177 1.177 0 0 1-1.183-1.172c0-.647.53-1.172 1.182-1.172h7.092c.653 0 1.182.525 1.182 1.172 0 .648-.53 1.173-1.182 1.173zm0 4.69H7.18a1.177 1.177 0 0 1-1.183-1.172c0-.648.53-1.173 1.182-1.173h7.092c.653 0 1.182.525 1.182 1.173 0 .647-.53 1.172-1.182 1.172zm0 9.38H7.18a1.177 1.177 0 0 1-1.183-1.173c0-.647.53-1.172 1.182-1.172h7.092c.653 0 1.182.525 1.182 1.172 0 .648-.53 1.173-1.182 1.173z" fill="#D7DEED"/><path d="M3.633 31.656h14.183V34H3.633zm14.184-17.587H3.634v-4.69c0-.647.529-1.172 1.182-1.172h11.819c.653 0 1.182.525 1.182 1.172v4.69z" fill="#C7CFE2"/><ellipse cx="10.725" cy="51.586" fill="#464655" rx="2.955" ry="2.931"/><path fill="#EFF2FA" d="M10.725 56.862c-2.933 0-5.319-2.367-5.319-5.276s2.386-5.276 5.32-5.276c2.932 0 5.318 2.367 5.318 5.276 0 2.91-2.386 5.276-5.319 5.276zm0-8.207c-1.63 0-2.955 1.315-2.955 2.931s1.326 2.931 2.955 2.931c1.63 0 2.955-1.315 2.955-2.93 0-1.617-1.326-2.932-2.955-2.932z"/></g></svg>