<svg xmlns="http://www.w3.org/2000/svg" width="111" height="32" viewBox="0 0 111 32"><g fill="none" fill-rule="evenodd"><path fill="#083050" d="M38.818 11.002c-.204-4.397 3.518-6.426 7.753-6.426 5.259 0 7.992 3.416 7.992 6.865 0 1.556-.718 3.35-2.118 4.397 2.46 1.285 3.483 3.18 3.483 5.85 0 4.194-3.074 7.442-9.323 7.442-5.26 0-8.64-2.808-8.64-8.15h5.43c0 1.859 1.434 3.042 3.21 3.042 2.083 0 3.108-1.352 3.108-2.705 0-1.32-1.025-2.671-3.108-2.671H44.76v-4.938h1.777c1.536 0 2.322-1.117 2.322-2.131 0-1.32-1.06-2.131-2.288-2.131-1.128 0-2.254.575-2.254 1.556h-5.499zm18.627-.575V5.016h14.19v5.41H67.58V28.69h-6.045V10.427h-4.09zm17.217 0V5.016h14.19v5.41h-4.056V28.69h-6.045V10.427h-4.09zm28.767-5.648l7.065 23.065v.846h-6.386l-.692-2.472-.22-.471h-7.01l-.04.085-.8 2.858H88.89v-.846l7.065-23.065h5.51L97.62 20.573h4.145l-1.306-5.366 2.54-10.428h.43z"/><path fill="#F05A22" d="M30.614 12.686a14.125 14.125 0 0 0-3.646-5.887l1.492-2.298a17.455 17.455 0 0 0-4.874-3.102l-1.49 2.293a14.221 14.221 0 0 0-2.222-.645V.32a17.587 17.587 0 0 0-5.794 0v2.716a14.29 14.29 0 0 0-2.226.65L10.37 1.4a17.428 17.428 0 0 0-4.875 3.1L6.98 6.79a14.305 14.305 0 0 0-1.515 1.736L2.963 7.395a17.175 17.175 0 0 0-2.407 5.22l2.498 1.13c-.17.737-.282 1.496-.33 2.273l-2.719.387a17.179 17.179 0 0 0 .824 5.68l2.715-.387c.266.726.591 1.424.967 2.09l-2.075 1.78a17.306 17.306 0 0 0 3.795 4.337l2.076-1.782a14.305 14.305 0 0 0 8.67 2.907c1.464 0 2.876-.218 4.205-.623 0 0-.15-2.388-2.057-5.074-1.714-2.416-3.999-4.471-4.976-5.725-1.016-1.303-1.437-2.934.078-4.003 1.227-.867 2.94-.409 5.661 3.06.479.61 1.197 2.506-.272 3.583-.054.053 1.632 2.262 1.632 2.262h4.734s2.96-2.279 1.452-13.269c0-.002.003-.004.005-.003l3.17 1.452c.003.001.006-.002.005-.004"/></g></svg>