<svg xmlns="http://www.w3.org/2000/svg" width="68" height="78" viewBox="0 0 68 78"><defs><linearGradient id="a" x1="88.893%" x2="27.487%" y1="6.749%" y2="100%"><stop offset="0%" stop-color="#1B2023" stop-opacity=".1"/><stop offset="100%" stop-opacity=".6"/></linearGradient><linearGradient id="b" x1="50%" x2="50%" y1="0%" y2="100%"><stop offset="0%" stop-color="#F99347"/><stop offset="100%" stop-color="#E93F00"/></linearGradient></defs><g fill="none" fill-rule="evenodd"><path fill="url(#a)" d="M34.137 76.686c17.839-15.351 28.747-26.96 31.868-34.827C71.101 29.234 64.421 19 50.99 19S23.632 29.234 19.983 41.859c-2.22 7.867.955 19.476 8.846 34.827.764 1.583 2.91 1.76 4.81.398a6.07 6.07 0 0 0 .498-.398z" opacity=".6"/><path fill="url(#b)" d="M33.789 76.25C51.263 55.96 60 40.614 60 30.215 60 13.528 46.569 0 30 0 13.431 0 0 13.528 0 30.215 0 40.614 8.737 55.96 26.211 76.25a5 5 0 0 0 7.578 0z"/><path fill="#FFF" d="M30 55.355c-13.807 0-25-11.265-25-25.161C5 16.297 16.193 5.032 30 5.032s25 11.265 25 25.162c0 13.896-11.193 25.16-25 25.16zm18.75-28.66a17.213 17.213 0 0 0-4.466-7.179l1.827-2.803a21.415 21.415 0 0 0-5.97-3.783l-1.825 2.797a17.48 17.48 0 0 0-2.722-.786v-3.327a21.637 21.637 0 0 0-7.097 0v3.312c-.94.191-1.85.46-2.727.793l-1.818-2.789a21.382 21.382 0 0 0-5.97 3.783l1.818 2.792a17.468 17.468 0 0 0-1.857 2.117l-3.064-1.38a20.92 20.92 0 0 0-2.949 6.365l3.06 1.378c-.207.9-.344 1.825-.403 2.772l-3.33.473a20.771 20.771 0 0 0 1.01 6.926l3.324-.472c.325.886.724 1.737 1.185 2.549l-2.542 2.17v.001a21.17 21.17 0 0 0 4.648 5.288l2.543-2.173a17.574 17.574 0 0 0 10.62 3.546 17.72 17.72 0 0 0 5.151-.761s-.185-2.911-2.52-6.187c-2.1-2.947-4.898-5.452-6.095-6.981-1.245-1.59-1.76-3.578.095-4.882 1.504-1.056 3.603-.498 6.935 3.732.586.743 1.467 3.055-.333 4.369-.067.065 2 2.759 2 2.759h5.798s3.626-2.78 1.778-16.18c0-.004.004-.007.006-.005l3.884 1.77c.003.002.007-.001.006-.005z"/></g></svg>