<svg xmlns="http://www.w3.org/2000/svg" width="40" height="32" viewBox="0 0 40 32"><g fill="none" fill-rule="evenodd"><path fill="#0094FF" fill-rule="nonzero" d="M34 10H0v13.75h1.133c4.346 0 20.401.551 32.867 8.25V10z"/><path fill="#38ACFF" fill-rule="nonzero" d="M26 28.094c2.7 1.049 5.398 2.288 8 3.906V12h-8v16.094z"/><path fill="#8FD1FF" fill-rule="nonzero" d="M38 5H0v17.417h2.337c6.238 0 23.582.365 35.663 4.583V5z"/><path fill="#BBE3FF" fill-rule="nonzero" d="M30 24.809c2.8.573 5.5 1.335 8 2.191V7h-8v17.809z"/><path fill="#BBE3FF" fill-rule="nonzero" d="M40 0H0v20h40z"/><path fill="#0094FF" d="M14 15.133h11V17H14v-1.867zm8.462-9.165a3.758 3.758 0 0 0-1.277-.82 4.078 4.078 0 0 0-1.458-.265A3.84 3.84 0 0 0 17.05 5.96c-.348.337-.622.73-.824 1.182a3.54 3.54 0 0 0-.301 1.459c0 .505.097.982.293 1.434.195.45.463.846.802 1.185.34.34.742.608 1.208.807.465.2.968.299 1.509.299.506 0 .983-.083 1.432-.248a3.613 3.613 0 0 0 1.268-.828.861.861 0 0 1 .315-.198 1.06 1.06 0 0 1 .358-.063c.138 0 .264.025.38.076.114.05.215.117.301.201a.876.876 0 0 1 .267.64.953.953 0 0 1-.069.357.856.856 0 0 1-.198.298 5.642 5.642 0 0 1-1.923 1.236 6.066 6.066 0 0 1-2.174.404 5.6 5.6 0 0 1-1.51-.202 5.734 5.734 0 0 1-2.506-1.434 5.521 5.521 0 0 1-.892-1.13 5.691 5.691 0 0 1-.578-1.337A5.292 5.292 0 0 1 14 8.617c0-.74.142-1.448.427-2.123a5.684 5.684 0 0 1 3.006-3.032A5.661 5.661 0 0 1 19.736 3c.748 0 1.47.137 2.165.412a5.8 5.8 0 0 1 1.906 1.244.91.91 0 0 1 .276.648.833.833 0 0 1-.077.353.946.946 0 0 1-.212.294 1.05 1.05 0 0 1-.31.202.944.944 0 0 1-.375.076c-.121 0-.239-.021-.354-.063a.72.72 0 0 1-.293-.198z"/><path fill="#8FD1FF" fill-rule="nonzero" d="M32 0h8v20h-8z"/></g></svg>