<svg xmlns="http://www.w3.org/2000/svg" width="40" height="39" viewBox="0 0 40 39"><g fill="none"><path fill="#8FD1FF" d="M9.678 31.735L.4 21.978a1.455 1.455 0 0 1 .019-2.025L19.253.835a1.478 1.478 0 0 1 2.08-.023l10.904 11.073c.564.573.56 1.49-.012 2.057l-7.059 7.013-15.488 10.78z"/><path fill="#BBE3FF" d="M4.43 26.215l20.824-21.42L22.71 2.21l-21.135 21z"/><path fill="#0094FF" d="M10.868 20.09h27.675c.805 0 1.457.652 1.457 1.455v16C40 38.35 39.348 39 38.543 39H10.868c-.804 0-1.456-.65-1.456-1.455v-16c0-.802.652-1.454 1.456-1.454z"/><path fill="#8FD1FF" d="M32.941 30.727h4.706v2.364h-4.706zm-7.059 0h4.706v2.364h-4.706zm-7.058 0h4.706v2.364h-4.706zm-7.059 0h4.706v2.364h-4.706zm-2.353 4.728H40v2.364H9.412z"/><path fill="#D1E3EF" d="M12.666 23.147h1.471v1.461h-1.471zm0 2.192h1.493V26.8h-1.493zm2.206-2.192h1.471V26.8h-1.471zm2.206 0h1.471v1.461h-1.471zm0 2.192h1.471V26.8h-1.471z"/><path fill="#0094FF" d="M22.444 16.795l2.941-2.941 1.033 1.033-2.941 2.941zm3.676-3.657l1.47-1.47 1.032 1.033-1.47 1.47z"/><circle cx="34.5" cy="25.5" r="2.5" fill="#FFBF41"/><circle cx="30.5" cy="25.5" r="2.5" fill="#E3482C"/></g></svg>