<svg xmlns="http://www.w3.org/2000/svg" xmlns:xlink="http://www.w3.org/1999/xlink" width="44" height="30" viewBox="0 0 44 30"><defs><path id="a" d="M1.783 2.683l4.554-1.325L10.893.032c.91-.265 1.657 1.147 1.657 3.137v10.85c0 1.99-.746 3.4-1.657 3.135-1.52-.442-3.038-.885-4.556-1.328L1.783 14.5c-.91-.265-1.657-1.46-1.657-2.654V5.335c0-1.194.746-2.386 1.657-2.652"/><linearGradient id="b" x1="61.912%" x2="-73.774%" y1="49.999%" y2="49.999%"><stop offset="0%" stop-color="#003D41"/><stop offset="100%" stop-color="#8FC575"/></linearGradient><path id="d" d="M10.768 2.683L6.213 1.358 1.657.032C.747-.233 0 1.18 0 3.168V14.02c0 1.99.746 3.4 1.657 3.135 1.52-.442 3.038-.885 4.556-1.328l4.555-1.327c.91-.266 1.655-1.46 1.655-2.654V5.335c0-1.194-.745-2.386-1.655-2.652"/><linearGradient id="e" x1="49.901%" x2="157.912%" y1="50.001%" y2="50.001%"><stop offset="0%" stop-color="#7ED688"/><stop offset="100%" stop-color="#C2F8A8"/></linearGradient><path id="g" d="M1.202 2.683l2.277-1.325C4.24.917 4.997.474 5.757.032c.455-.265.829 1.147.829 3.137v10.85c0 1.99-.374 3.4-.83 3.135L3.48 15.826 1.202 14.5c-.455-.265-.828-1.46-.828-2.654V5.335c0-1.194.373-2.386.828-2.652"/><linearGradient id="h" x1="78.2%" x2="-77.949%" y1="49.999%" y2="49.999%"><stop offset="0%" stop-color="#005741"/><stop offset="100%" stop-color="#8FC575"/></linearGradient><path id="j" d="M5.634 2.683L3.357 1.358C2.597.917 1.839.474 1.079.032.624-.233.25 1.18.25 3.17v10.849c0 1.99.373 3.4.829 3.135l2.278-1.328L5.634 14.5c.455-.265.828-1.46.828-2.654V5.335c0-1.194-.373-2.386-.828-2.652"/><linearGradient id="k" x1="48.446%" x2="162.45%" y1="50.001%" y2="50.001%"><stop offset="0%" stop-color="#65BD6F"/><stop offset="100%" stop-color="#C2F8A8"/></linearGradient><path id="m" d="M.312 2.683l.341-1.325L.994.032c.069-.265.125 1.147.125 3.137v10.85c0 1.99-.056 3.4-.125 3.135l-.34-1.328L.311 14.5c-.068-.265-.124-1.46-.124-2.654V5.335c0-1.194.056-2.386.124-2.652"/><linearGradient id="n" x1="100.003%" x2="-104.185%" y1="50.001%" y2="50.001%"><stop offset="0%" stop-color="#187041"/><stop offset="100%" stop-color="#F5F8FF"/></linearGradient><path id="p" d="M.81 2.683L.467 1.358.127.032C.059-.233.003 1.18.003 3.17v10.849c0 1.99.056 3.4.124 3.135l.341-1.328L.81 14.5c.068-.265.124-1.46.124-2.654V5.335C.933 4.141.877 2.95.81 2.683"/><linearGradient id="q" x1="-.151%" x2="304.152%" y1="50.001%" y2="50.001%"><stop offset="0%" stop-color="#4BA354"/><stop offset="100%" stop-color="#F6F6FB"/></linearGradient></defs><g fill="none" fill-rule="evenodd"><g transform="translate(31.429)"><mask id="c" fill="#fff"><use xlink:href="#a"/></mask><path fill="url(#b)" fill-rule="nonzero" d="M.126-.233H12.55v17.652H.126z" mask="url(#c)"/></g><mask id="f" fill="#fff"><use xlink:href="#d"/></mask><path fill="url(#e)" fill-rule="nonzero" d="M0-.233h12.423v17.652H0z" mask="url(#f)"/><g transform="translate(24)"><mask id="i" fill="#fff"><use xlink:href="#g"/></mask><path fill="url(#h)" fill-rule="nonzero" d="M.374-.233h6.212v17.652H.374z" mask="url(#i)"/></g><g transform="translate(13.143)"><mask id="l" fill="#fff"><use xlink:href="#j"/></mask><path fill="url(#k)" fill-rule="nonzero" d="M.25-.233h6.212v17.652H.25z" mask="url(#l)"/></g><g transform="translate(22.286)"><mask id="o" fill="#fff"><use xlink:href="#m"/></mask><path fill="url(#n)" fill-rule="nonzero" d="M.188-.233h1v17.652h-1z" mask="url(#o)"/></g><g transform="translate(20.571)"><mask id="r" fill="#fff"><use xlink:href="#p"/></mask><path fill="url(#q)" fill-rule="nonzero" d="M.003-.233h1v17.652h-1z" mask="url(#r)"/></g><path fill="#4D4D4D" fill-rule="nonzero" d="M38.474 23.7l-.249 1.158a2.211 2.211 0 0 0-.607-.082c-.126 0-.25.01-.368.03-.12.02-.223.047-.309.083v4.406h-1.354V24.05c.28-.116.607-.21.98-.285a6.369 6.369 0 0 1 1.595-.1c.118.01.222.021.312.037zm-3.57 1.432c.1.307.152.65.152 1.028 0 .077-.01.389-.02.47l-3.454.483c.041.27.13.493.262.673.134.18.305.314.514.403.208.089.443.133.707.133a3.441 3.441 0 0 0 1.057-.167 2.6 2.6 0 0 0 .436-.181l.388 1.045a2.943 2.943 0 0 1-.539.208 5.48 5.48 0 0 1-1.442.191 3.109 3.109 0 0 1-1.171-.212 2.272 2.272 0 0 1-.846-.596c-.229-.256-.4-.56-.516-.911a3.734 3.734 0 0 1-.174-1.17c.002-.425.056-.813.17-1.163a2.62 2.62 0 0 1 .489-.91c.214-.257.474-.455.781-.595.307-.14.657-.21 1.048-.212.372.002.7.062.987.182.286.117.528.288.724.508.197.222.345.485.446.793zm-3.412 1.1l2.25-.318c0-.277-.043-.507-.126-.693a.896.896 0 0 0-.355-.417 1.017 1.017 0 0 0-.544-.14c-.238 0-.447.058-.628.176a1.18 1.18 0 0 0-.428.526c-.104.232-.16.52-.169.865zm-3.14-4.98h1.355v8.043h-1.354v-8.043zm-2.193 0h1.354v8.043h-1.354v-8.043zm-.704 3.88c.101.307.153.65.153 1.028 0 .077-.01.389-.02.47l-3.454.483c.041.27.129.493.262.673.134.18.305.314.514.403.207.089.443.133.707.133a3.443 3.443 0 0 0 1.056-.167c.165-.052.31-.113.437-.181l.388 1.045a2.941 2.941 0 0 1-.54.208 5.484 5.484 0 0 1-1.442.191 3.106 3.106 0 0 1-1.17-.212 2.272 2.272 0 0 1-.846-.596c-.229-.256-.4-.56-.516-.911a3.737 3.737 0 0 1-.174-1.17c.002-.425.056-.813.169-1.163.111-.352.275-.654.49-.91.214-.257.474-.455.78-.595.308-.14.658-.21 1.05-.212.371.002.7.062.986.182.286.117.528.288.724.508.197.222.345.485.446.793zm-3.41 1.1l2.249-.318a1.7 1.7 0 0 0-.126-.693.898.898 0 0 0-.355-.417 1.018 1.018 0 0 0-.545-.14c-.237 0-.446.058-.627.176-.18.117-.323.292-.428.526-.104.232-.16.52-.169.865zm-1.418 2.991a1.242 1.242 0 0 1-.21.077 2.446 2.446 0 0 1-.607.077c-.515 0-.899-.145-1.15-.437-.25-.29-.374-.726-.372-1.305v-2.818H17.6v-1.045h.687v-1.23l1.333-.399v1.63h1.006v1.044H19.62v2.726a.696.696 0 0 0 .083.357.457.457 0 0 0 .22.191.836.836 0 0 0 .315.057 1.049 1.049 0 0 0 .388-.082v1.157zm-4.792-5.45h1.354v5.522h-1.354v-5.523zm1.453-1.64a.73.73 0 0 1-.106.383.775.775 0 0 1-.67.376.775.775 0 0 1-.67-.376.732.732 0 0 1 0-.764.756.756 0 0 1 .278-.266.791.791 0 0 1 .392-.1.792.792 0 0 1 .391.1.754.754 0 0 1 .279.266c.07.113.105.24.106.38zm-2.193 7.162H13.73v-3.637c0-.28-.082-.497-.24-.654-.162-.156-.396-.236-.706-.238-.16 0-.313.014-.455.04a1.77 1.77 0 0 0-.351.093v4.396h-1.354V24.05c.282-.12.599-.215.95-.289a6.11 6.11 0 0 1 1.19-.11c.531.001.967.073 1.312.218.344.145.6.357.767.634.167.278.25.614.25 1.012v3.781zm-5.19-.276c-.158.078-.35.148-.578.208a6.465 6.465 0 0 1-1.563.191c-.494.002-.909-.07-1.244-.212a1.532 1.532 0 0 1-.758-.67c-.17-.301-.257-.69-.257-1.167v-3.597h1.354V27.4c0 .297.076.515.229.659.152.142.378.213.676.212.176-.002.332-.014.468-.038.136-.025.243-.053.319-.085v-4.376h1.354v5.247z"/></g></svg>