<svg xmlns="http://www.w3.org/2000/svg" width="57" height="18" viewBox="0 0 57 18"><defs><linearGradient id="a" x1="45.974%" x2="54.877%" y1="-2.006%" y2="100%"><stop offset="0%" stop-color="#222357"/><stop offset="100%" stop-color="#254AA5"/></linearGradient></defs><path fill="url(#a)" d="M29.479 12.197c-.032-2.498 2.285-3.891 4.03-4.72 1.795-.85 2.397-1.395 2.39-2.156-.013-1.163-1.43-1.677-2.757-1.697-2.314-.035-3.66.609-4.73 1.096L27.58.92C28.652.438 30.64.018 32.7 0c4.837 0 8.002 2.326 8.02 5.932.018 4.576-6.5 4.83-6.455 6.875.015.62.623 1.282 1.954 1.45.66.085 2.479.15 4.541-.775l.81 3.676c-1.11.393-2.535.77-4.31.77-4.553 0-7.755-2.357-7.781-5.731m19.87 5.414a2.1 2.1 0 0 1-1.96-1.272L40.48.27h4.834l.962 2.59h5.907L52.74.27H57l-3.718 17.341H49.35m.676-4.684l1.395-6.512H47.6l2.425 6.512M23.618 17.61L19.808.271h4.606l3.809 17.34h-4.605m-6.813 0L12.01 5.808l-1.939 10.036c-.228 1.12-1.126 1.767-2.124 1.767H.11L0 17.108c1.609-.34 3.437-.889 4.544-1.476.678-.358.872-.671 1.094-1.523L9.311.27h4.868l7.463 17.341h-4.837" transform="matrix(1 0 0 -1 0 17.928)"/></svg>