<svg xmlns="http://www.w3.org/2000/svg" width="40" height="35" viewBox="0 0 40 35"><g fill="none"><path fill="#0094FF" d="M36.923 9.265L19.487 0 2.051 9.265z"/><path fill="#8FD1FF" d="M8.205 8.235L19.487 2.06 30.77 8.235z"/><path fill="#BBE3FF" d="M6.154 13.382h4.103v16.471H6.154z"/><path fill="#8FD1FF" d="M4.103 10.294h30.769v2.059H4.103zm0 20.588h30.769v2.059H4.103z"/><path fill="#0094FF" d="M3.077 32.941h32.821V35H3.077zM0 23.676l2.051-2.058L0 19.558h4.103v4.118H0zm34.872-4.117h2.051V17.5L40 21.618l-3.077 4.117v-2.059h-2.051zm-22.564 0h3.077v4.118h-3.077zm11.282 0h3.077v4.118H23.59z"/><path fill="#BBE3FF" d="M17.436 13.382h4.103v16.471h-4.103zm11.282 0h4.103v16.471h-4.103z"/><path fill="#38ACFF" d="M5.128 12.353h6.154v1.033c0 .567-.46 1.026-1.026 1.026H6.154c-.567 0-1.026-.46-1.026-1.026v-1.033zm1.026 16.471h4.102c.567 0 1.026.459 1.026 1.025v1.033H5.128V29.85c0-.566.46-1.025 1.026-1.025zM16.41 12.353h6.154v1.033c0 .567-.46 1.026-1.026 1.026h-4.102c-.567 0-1.026-.46-1.026-1.026v-1.033zm1.026 16.471h4.102c.567 0 1.026.459 1.026 1.025v1.033H16.41V29.85c0-.566.46-1.025 1.026-1.025zm10.256-16.471h6.154v1.033c0 .567-.459 1.026-1.025 1.026h-4.103c-.566 0-1.026-.46-1.026-1.026v-1.033zm1.026 16.471h4.103c.566 0 1.025.459 1.025 1.025v1.033h-6.154V29.85c0-.566.46-1.025 1.026-1.025z"/></g></svg>