<svg xmlns="http://www.w3.org/2000/svg" width="62" height="26" viewBox="0 0 62 26"><g fill="none" fill-rule="evenodd"><g transform="translate(24.8)"><ellipse cx="6.643" cy="6.5" fill="#E8201D" rx="6.643" ry="6.5"/><path fill="#454647" d="M5.32 6.496H.017C0 4.794.44 3.412 1.663 2.202c.763-.754 1.78-1.4 1.848-1.408.007.014.61 1.915 1.81 5.702zm-.439 0c.103.14.024.28-.008.412-.163.674-.323 1.348-.491 2.02-.238.95-.459 1.905-.703 2.854-.029.113-.04.236-.14.32l-.03.098c-.086-.003-.15-.058-.218-.099C1.5 11.03.417 9.491.08 7.457c-.03-.173-.064-.96-.064-.96H4.88z"/><path fill="#454647" d="M5.32 6.496H.017C0 4.794.44 3.412 1.663 2.202c.763-.754 1.78-1.4 1.848-1.408.007.014.61 1.915 1.81 5.702z"/><path fill="#35363A" d="M4.881 6.497c.103.139.024.279-.008.411-.163.674-.323 1.348-.491 2.02-.238.95-.459 1.905-.703 2.854-.029.113-.04.236-.14.32l-.03.098c-.086-.003-.15-.058-.218-.099C1.5 11.03.417 9.491.08 7.457c-.03-.173-.064-.96-.064-.96H4.88z"/><path fill="#FCFEFF" d="M3.515 12.194l1.366-5.697L3.491.799l6.86 5.675z"/></g><path fill="#35363A" d="M40.914 22.693a.844.844 0 0 0 .742-.827c.006-.48-.296-.838-.776-.89-.453-.05-.91-.012-1.364-.021-.098-.002-.115.052-.114.133.003.255.001.51 0 .766 0 .24.005.48-.001.72-.003.11.037.151.149.148.188-.006.377 0 .565-.002.267-.002.534.011.8-.027zm-1.386-4.739c-.112-.001-.128.053-.126.143.003.224 0 .449 0 .673 0 .224-.001.449.001.673.002.165.005.169.17.17.368.002.737.001 1.106 0 .721-.002.944-.64.813-1.105-.094-.333-.364-.53-.787-.547-.392-.017-.785-.001-1.177-.007zm2.664 2.413c.967.248 1.394.821 1.347 1.81-.014.288-.08.564-.185.833-.225.577-.65.912-1.262 1.024a5.394 5.394 0 0 1-.959.095h-3.297c-.207 0-.21-.002-.21-.198v-7.125c0-.194.002-.196.21-.196l3.58.001c.245 0 .485.04.717.114.677.215 1.018.717 1.17 1.365.086.361.058.72-.08 1.07a1.434 1.434 0 0 1-.94.876c-.186.06-.375.11-.609.177.199.09.361.114.518.154zm-13.957 3.547c0 .03-.003.062 0 .093.018.127-.047.156-.164.153a9.817 9.817 0 0 0-.706 0c-.61.027-.967-.425-.964-.96.004-.804.001-1.609 0-2.413 0-.131.002-.263-.01-.394-.024-.293-.153-.47-.375-.533-.294-.082-.591.008-.76.234-.135.18-.19.389-.193.609-.008.394-.011.789-.012 1.183-.002.688 0 1.376-.001 2.065 0 .204-.002.206-.205.207a56.91 56.91 0 0 1-.635 0c-.613-.002-.968-.348-.969-.948-.002-.843 0-1.686 0-2.529 0-.155-.007-.309-.058-.457-.097-.285-.298-.429-.598-.43-.31 0-.525.153-.62.439a1.354 1.354 0 0 0-.05.435v3.202c0 .054-.004.108 0 .162.006.087-.03.127-.121.127a232.11 232.11 0 0 0-1.578 0c-.094 0-.124-.045-.12-.13.002-.046 0-.092 0-.139v-5.126c.005-.168.005-.173.167-.173.447-.003.895.002 1.342-.003.121-.002.165.035.162.159-.008.308-.003.618-.003.927l.042.01c.103-.17.2-.344.31-.51.25-.385.599-.64 1.063-.692.69-.079 1.298.097 1.686.793l.122.22c.073-.063.106-.138.145-.206.527-.913 1.629-.963 2.284-.672.526.235.765.663.802 1.215.01.154.016.309.016.463.002 1.207.001 2.413.001 3.62zM5.501 17.186c.667.521 1.024 1.236 1.188 2.05.07.35.098.703.1 1.06-.008.78-.122 1.539-.505 2.236-.46.835-1.127 1.435-2.086 1.633-1.993.41-3.496-.648-3.976-2.318-.347-1.21-.305-2.416.251-3.57.322-.667.792-1.224 1.503-1.502 1.24-.484 2.443-.435 3.525.411zm-.974 4.538c.149-.787.174-1.58.08-2.374a2.465 2.465 0 0 0-.259-.86c-.383-.735-1.39-.719-1.794-.064-.111.18-.192.371-.249.573-.13.466-.15.944-.155 1.48.012.275.008.607.066.936.058.321.144.63.319.913.405.656 1.416.597 1.774-.02.106-.184.179-.378.218-.584zm8.081-2.213c.223.443.318.919.347 1.408.038.628.014 1.25-.18 1.857-.102.32-.252.616-.466.878-.454.56-1.092.73-1.772.558-.34-.086-.6-.294-.793-.582-.08-.12-.16-.24-.27-.409-.006.11-.012.168-.012.225 0 .472 0 .944.004 1.415a1.66 1.66 0 0 1-.04.368.964.964 0 0 1-.849.756c-.296.023-.596.01-.894.015-.092.002-.127-.038-.122-.126.003-.046 0-.092 0-.139V24.39c-.002-1.84-.006-3.68-.007-5.521 0-.307-.04-.28.294-.28.416 0 .832-.002 1.248 0 .177.001.18.004.18.181.002.353.001.707.001 1.06l.048.007c.08-.175.16-.35.238-.526.252-.564.709-.816 1.318-.845.819-.038 1.374.34 1.727 1.045zm-1.673 2.893a5.598 5.598 0 0 0 .017-1.932 1.336 1.336 0 0 0-.194-.541c-.21-.317-.57-.4-.903-.214a.715.715 0 0 0-.389.644c-.007.324-.002.649-.002.973v.927c.001.19.048.368.153.527a.663.663 0 0 0 .632.324.659.659 0 0 0 .575-.38c.054-.102.09-.214.11-.328zm38.723 1.077c0 .195.035.385.077.573.017.075-.01.103-.078.103-.392 0-.785.011-1.176-.01-.26-.013-.427-.18-.504-.423a.872.872 0 0 1-.042-.297c.004-.113 0-.226 0-.34l-.05-.008c-.083.13-.163.264-.25.391-.362.526-.872.782-1.511.8a2.561 2.561 0 0 1-.86-.097 1.58 1.58 0 0 1-1.07-1.39c-.035-.748.313-1.274.956-1.627.437-.24.922-.339 1.411-.414a7.765 7.765 0 0 1 1.122-.107c.128-.001.168-.047.156-.165-.01-.1-.004-.2-.016-.3-.04-.356-.25-.556-.614-.588-.42-.037-.797.043-1.072.393-.13.164-.305.204-.504.184l-1.214-.122c-.045-.069.003-.124.022-.176.213-.561.612-.942 1.174-1.162a3.538 3.538 0 0 1 1.1-.225c.541-.03 1.082-.01 1.61.133.12.033.242.068.355.118.562.247.901.657.932 1.279.016.316.031.633.034.95.008.842.009 1.685.012 2.527zm-1.89-.991c.082-.356.077-.717.062-1.092-.138.016-.248.024-.355.042-.294.05-.582.118-.843.27-.282.163-.459.397-.476.723-.02.38.13.608.416.692.403.117 1.053-.014 1.196-.635zm7.87-2.831c.028.198.05.4.051.6.005 1.229.003 2.459.003 3.688 0 .21-.002.21-.223.211-.236 0-.471.004-.707-.002-.563-.013-.953-.406-.954-.964a458.03 458.03 0 0 1 0-2.366c0-.17-.008-.34-.03-.509-.043-.311-.191-.49-.462-.543a.668.668 0 0 0-.724.317c-.114.2-.143.421-.143.648v2.947c0 .108-.005.217.002.325.007.11-.034.15-.148.15a93.686 93.686 0 0 0-1.601 0c-.115 0-.158-.04-.147-.149.005-.038.001-.077.001-.116v-5.058c0-.278-.034-.248.249-.249.44-.002.88-.002 1.319 0 .166.001.17.005.17.17.002.339 0 .678 0 1.017l.05.008c.058-.124.121-.246.176-.372.28-.653.789-.95 1.498-.947.19.001.379.009.56.059.588.162.971.52 1.06 1.135zM34.314 22.79c-.002.41.013.82.097 1.222.026.121-.006.148-.12.147-.338-.005-.676.002-1.013-.003-.385-.006-.627-.234-.654-.617-.01-.151-.002-.304-.002-.482-.096.05-.121.118-.152.173-.497.914-1.311 1.175-2.337.989-.671-.122-1.197-.712-1.251-1.364-.063-.772.275-1.329.947-1.698.437-.241.922-.34 1.41-.415a7.86 7.86 0 0 1 1.123-.108c.129-.002.165-.052.154-.168-.008-.084 0-.17-.006-.255-.027-.387-.25-.603-.644-.632-.414-.03-.781.054-1.048.398-.122.157-.292.2-.482.183-.413-.04-.825-.083-1.267-.128.162-.537.462-.932.937-1.197.426-.237.895-.33 1.373-.36.55-.036 1.098-.013 1.634.132.128.034.256.075.376.13.551.249.878.66.908 1.27.014.294.015.588.016.881.003.634.003 1.268 0 1.902zm-1.84-.4c.054-.323.039-.645.036-.991-.133.015-.242.022-.35.04a2.588 2.588 0 0 0-.784.234c-.302.158-.507.392-.538.738-.034.375.132.671.49.732.487.083 1.036-.108 1.146-.754zM16.37 18.604c.115-.003.17.021.167.152-.01.293-.007.587-.001.881.001.104-.041.132-.138.13-.275-.004-.55.004-.824-.004-.127-.003-.158.043-.158.16.005.72.002 1.439.004 2.158 0 .077.021.153.025.23.018.361.228.533.622.549.147.006.296-.017.467-.028 0 .306.002.607 0 .907-.004.459.053.354-.36.414a4.45 4.45 0 0 1-1.22.02c-.768-.097-1.19-.526-1.278-1.31a2.441 2.441 0 0 1-.015-.278c.004-1.655.012-3.31.012-4.964 0-.455.348-.965.946-.936.258.013.516.002.8.002 0 .57-.002 1.117 0 1.666 0 .277-.04.251.245.253.236 0 .471.004.706-.002zm41.882 1.623c-.028.923.007 1.997.001 3.072a.822.822 0 0 1-.317.667.673.673 0 0 1-.41.16c-.281.006-.564 0-.847.003-.088.001-.131-.027-.124-.119.005-.061 0-.124 0-.185V17.47c.005-.495.413-.903.901-.864.226.018.455.005.683.002.078-.001.118.022.113.105-.004.054 0 .108 0 .162v3.352zm-39.134-1.62c.179 0 .182.002.183.177v1.973l-.001 2.297c0 .17-.007.342-.079.5-.16.356-.431.564-.836.573-.251.006-.502.003-.754 0-.183 0-.185-.002-.185-.197v-5.128c0-.192.002-.194.188-.195h1.484zm42.765 5.278c.043.071.08.145.117.21-.038.04-.07.033-.1.033-.525 0-1.051-.002-1.577.002-.105.001-.17-.025-.224-.122a446.05 446.05 0 0 0-1.621-2.903c-.054-.095-.055-.166.01-.252.141-.185.267-.383.413-.563.416-.514.843-1.018 1.256-1.534a.373.373 0 0 1 .337-.153c.421.009.842.003 1.276.003-.018.1-.078.152-.122.212-.472.646-.94 1.294-1.423 1.932-.103.137-.095.228-.011.366.562.92 1.114 1.845 1.67 2.77zM19.301 16.64c.002.394-.003.788.002 1.182.002.11-.034.15-.148.148-.258-.006-.517-.002-.776-.002s-.517-.004-.776.002c-.122.004-.166-.037-.16-.16.01-.184-.002-.37.003-.555.013-.452.304-.788.805-.777.29.007.58 0 .87.002.174.001.178.004.18.16z"/></g></svg>