<svg width="40" height="40" viewBox="0 0 40 40" xmlns="http://www.w3.org/2000/svg"><path d="M38.829 13.29a19.863 19.863 0 0 1-.769 15.281 19.86 19.86 0 0 1-11.348 10.263A20.005 20.005 0 0 1 19.991 40a19.96 19.96 0 0 1-10.243-2.835.814.814 0 0 1 .833-1.397 18.315 18.315 0 0 0 15.585 1.533 18.243 18.243 0 0 0 10.424-9.427 18.247 18.247 0 0 0 .706-14.038A18.244 18.244 0 0 0 27.87 3.41a18.24 18.24 0 0 0-14.036-.706A18.243 18.243 0 0 0 3.41 12.131a18.246 18.246 0 0 0-.706 14.038.814.814 0 1 1-1.533.547 19.864 19.864 0 0 1 .769-15.282A19.86 19.86 0 0 1 13.288 1.17a19.855 19.855 0 0 1 15.28.77 19.86 19.86 0 0 1 10.26 11.349zm-9.88 6.713a.813.813 0 0 1-.813.813H7.874a.814.814 0 0 1 0-1.627h20.262c.449 0 .813.364.813.814zm-6.483 8.51l8.51-8.51-8.51-8.511a.813.813 0 1 1 1.15-1.15l9.085 9.085a.813.813 0 0 1 0 1.15l-9.085 9.087a.811.811 0 0 1-1.15 0 .813.813 0 0 1 0-1.15z" fill="#39F"/></svg>